<?xml version="1.0" encoding="UTF-8"?>
<svg id="Layer_1" xmlns="http://www.w3.org/2000/svg" version="1.1" viewBox="0 0 213.2 213.2">
  <!-- Generator: Adobe Illustrator 29.1.0, SVG Export Plug-In . SVG Version: 2.1.0 Build 142)  -->
  <path d="M104.2,200.5l-3.1,1.5L10.7,161.8V56.2l88.5,39.3c1.4.6,3,.6,4.3,0l88.5-39.3v45.1c0,1.9,1,3.7,2.7,4.6s3.7,1,5.3,0,2.7-2.7,2.7-4.6v-53.3c0-1-.3-2-.9-2.9-.6-.9-1.4-1.5-2.3-2L103.4.5c-1.4-.6-3-.6-4.3,0L3.2,43.1c-.9.4-1.7,1.1-2.3,2-.6.9-.9,1.9-.9,2.9v117.3c0,1,.3,2,.9,2.9.6.9,1.4,1.5,2.3,2l96,42.6c1.5.6,3.1.6,4.5-.1l5.3-2.7h0c1.7-.9,2.7-2.6,2.8-4.4,0-1.9-.8-3.7-2.4-4.7-1.6-1-3.6-1.2-5.3-.4h0ZM101.3,84.8l-37.7-16.8,82.5-36.7c0,0,.2-.1.3-.2l37.8,16.8-82.8,36.8ZM101.3,11.2l32,14.2L51.1,61.9c-.2.1-.4.2-.6.3l-32.1-14.3L101.3,11.2Z"/>
  <path d="M159.9,106.6c-14.1,0-27.7,5.6-37.7,15.6-10,10-15.6,23.6-15.6,37.7s5.6,27.7,15.6,37.7c10,10,23.6,15.6,37.7,15.6s27.7-5.6,37.7-15.6c10-10,15.6-23.6,15.6-37.7,0-14.1-5.6-27.7-15.6-37.7-10-10-23.5-15.6-37.7-15.6h0ZM159.9,202.6c-11.3,0-22.2-4.5-30.2-12.5-8-8-12.5-18.8-12.5-30.2s4.5-22.2,12.5-30.2c8-8,18.8-12.5,30.2-12.5s22.2,4.5,30.2,12.5c8,8,12.5,18.8,12.5,30.2,0,11.3-4.5,22.1-12.5,30.1-8,8-18.8,12.5-30.1,12.5h0Z"/>
  <path d="M179.7,140.2c-1-1-2.4-1.6-3.8-1.6s-2.8.6-3.8,1.6l-12.2,12.2-12.2-12.2h0c-1.4-1.3-3.3-1.7-5.1-1.2-1.8.5-3.2,1.9-3.7,3.7-.5,1.8,0,3.7,1.2,5.1l12.2,12.2-12.2,12.2c-1.3,1.3-1.9,3.3-1.4,5.1.5,1.8,1.9,3.3,3.8,3.8,1.8.5,3.8,0,5.2-1.4l12.2-12.2,12.2,12.2h0c1.4,1.3,3.3,1.8,5.1,1.3,1.8-.5,3.2-1.9,3.7-3.7.5-1.8,0-3.7-1.3-5.1l-12.2-12.2,12.2-12.2c1-1,1.6-2.4,1.6-3.8s-.6-2.8-1.6-3.8h0Z"/>
</svg>