<?xml version="1.0" encoding="UTF-8"?>
<svg id="Layer_1" xmlns="http://www.w3.org/2000/svg" version="1.1" viewBox="0 0 191 212.9">
  <!-- Generator: Adobe Illustrator 29.1.0, SVG Export Plug-In . SVG Version: 2.1.0 Build 142)  -->
  <path d="M99.2,188c-2.1,0-4-1.5-4.4-3.7-.4-2.4,1.2-4.7,3.6-5.1l87.4-15.4c2.4-.5,4.7,1.2,5.1,3.6.4,2.4-1.2,4.7-3.6,5.1l-87.4,15.4c-.3,0-.5,0-.8,0h0Z"/>
  <path d="M59.3,160.1c-2.1,0-4-1.5-4.4-3.7L29.7,13.1c-.2-1.3-1-2.5-2.1-3.3-1.1-.8-2.4-1.1-3.7-.8l-18.7,3.3c-2.4.4-4.7-1.2-5.1-3.6-.4-2.4,1.2-4.7,3.6-5.1L22.3.3c3.6-.7,7.3.2,10.4,2.3,3.1,2.1,5.1,5.3,5.7,9l25.2,143.2c.4,2.4-1.2,4.7-3.6,5.1-.3,0-.5,0-.8,0h0Z"/>
  <path d="M64.5,212.9c-12.2,0-22.2-10-22.2-22.2s10-22.2,22.2-22.2,22.2,10,22.2,22.2-10,22.2-22.2,22.2ZM64.5,177.5c-7.3,0-13.3,6-13.3,13.3s6,13.3,13.3,13.3,13.3-6,13.3-13.3-6-13.3-13.3-13.3Z"/>
  <path d="M68.9,190.8c0,2.5-2,4.4-4.4,4.4s-4.4-2-4.4-4.4,2-4.4,4.4-4.4,4.4,2,4.4,4.4"/>
  <path d="M89.8,170.4c-2.5,0-4.4-2-4.4-4.4s2-4.4,4.4-4.4.4,0,.6,0l67.8-11.9c3.3-.6,5.6-3.4,5.2-6.1l-8.2-46.6c-.5-2.7-3.6-4.5-6.9-3.9l-67.8,11.9c-3.3.6-5.7,3.4-5.2,6.1l8.2,46.5c0,.4.1.7.1,1.1,0,2.5-2,4.4-4.4,4.4s-3.9-1.5-4.3-3.5c0-.1,0-.2,0-.4h0l-8.3-46.6c-1.3-7.6,4.3-14.9,12.4-16.3l67.8-11.9c8.1-1.4,15.8,3.5,17.2,11.1l8.2,46.7c1.3,7.6-4.2,14.9-12.4,16.3l-67.8,11.9c-.8.1-1.5.2-2.1.2h0Z"/>
  <path d="M109.8,118.9c-2.1,0-4-1.5-4.4-3.7-.4-2.4,1.2-4.7,3.6-5.1l14-2.5c2.4-.4,4.7,1.2,5.1,3.6.4,2.4-1.2,4.7-3.6,5.1l-14,2.5c-.3,0-.5,0-.8,0h0Z"/>
  <path d="M74.3,86.5c-2.9,0-5.7-.8-8.1-2.3-3.4-2.1-5.6-5.3-6.2-9.1l-8.2-46.6c-.7-3.7.3-7.5,2.8-10.6,2.3-3,5.7-5,9.6-5.7L131.8.2c8.2-1.4,15.9,3.5,17.2,11.1l8.2,46.6c.7,3.7-.3,7.5-2.8,10.6-2.3,3-5.7,5-9.6,5.7l-67.8,11.9c-.9.2-1.9.2-2.8.2h0ZM134.6,8.9c-.4,0-.8,0-1.2.1l-67.8,11.9c-1.7.3-3.2,1.2-4.2,2.4-.9,1.1-1.2,2.4-1,3.6l8.2,46.6c.2,1.2,1,2.3,2.2,3.1,1.4.8,3,1.1,4.7.8l67.8-11.9c1.7-.3,3.2-1.2,4.2-2.4.9-1.1,1.2-2.4,1-3.6l-8.2-46.6c-.4-2.3-2.9-4-5.7-4h0Z"/>
  <path d="M95,34.9c-2.1,0-4-1.5-4.4-3.7-.4-2.4,1.2-4.7,3.6-5.1l14-2.5c2.4-.4,4.7,1.2,5.1,3.6.4,2.4-1.2,4.7-3.6,5.1l-14,2.5c-.3,0-.5,0-.8,0h0Z"/>
</svg>