<?xml version="1.0" encoding="UTF-8"?>
<svg id="Layer_1" xmlns="http://www.w3.org/2000/svg" version="1.1" viewBox="0 0 213.2 213.2">
  <!-- Generator: Adobe Illustrator 29.1.0, SVG Export Plug-In . SVG Version: 2.1.0 Build 142)  -->
  <path d="M211.7,206.9l-34.1-34.1c5.8-7.4,9-16.6,9-26.1s-4.5-22.2-12.5-30.2c-6.6-6.6-15.3-10.9-24.6-12.1-9.3-1.2-18.8.7-26.9,5.3-8.1,4.7-14.5,11.9-18.1,20.6-3.6,8.7-4.2,18.3-1.8,27.4,2.4,9.1,7.8,17.1,15.2,22.8,7.4,5.7,16.6,8.8,26,8.8h0c9.5,0,18.7-3.2,26.1-9l34.1,34.1c1,1,2.4,1.6,3.8,1.6h0c1.4,0,2.8-.6,3.8-1.6,1-1,1.6-2.4,1.6-3.8s-.6-2.8-1.6-3.8ZM131.7,176.2c-9.2-3.8-16.1-11.7-18.6-21.3-2.6-9.6-.5-19.9,5.5-27.7,6.1-7.9,15.4-12.5,25.4-12.5h0c8.5,0,16.6,3.4,22.6,9.4,7,7,10.4,16.9,9.1,26.8-.9,6.7-3.9,12.9-8.4,17.7-.3.2-.5.4-.7.6-.2.2-.4.5-.6.7-1.8,1.7-3.8,3.2-6,4.4-8.6,5-19,5.6-28.2,1.8Z"/>
  <path d="M115.3,195c-1.3-.5-2.8-.4-4.1.2h0s-9.8,4.4-9.8,4.4L10.7,159.2V53.6l88.5,39.3c.7.3,1.4.5,2.2.5h0c.7,0,1.5-.2,2.2-.5l88.5-39.3v61.1c0,1.9,1,3.7,2.7,4.6s3.7,1,5.3,0c1.6-1,2.7-2.7,2.7-4.6V46.1c.1-1,0-2-.4-2.9-.6-1.3-1.7-2.3-3-2.8,0,0-.2,0-.3,0L103.5-2.1c-1.4-.6-3-.6-4.3,0L3.2,40.5c-.9.4-1.7,1.1-2.3,2-.6.9-.9,1.9-.9,2.9v117.3c0,1,.3,2,.9,2.9.6.9,1.4,1.5,2.3,2l96,42.6c.7.3,1.4.5,2.2.5h0c.7,0,1.5-.2,2.2-.5l12-5.3c1.3-.6,2.4-1.6,2.9-3,.5-1.3.5-2.8,0-4.1-.6-1.3-1.7-2.3-3-2.8ZM101.3,82.2l-37.7-16.8,82.5-36.7c0,0,.2,0,.3-.1l37.7,16.8-82.8,36.8ZM101.3,8.6l32,14.2L51.2,59.3c-.2,0-.4.2-.6.3l-32.1-14.2L101.3,8.6Z"/>
</svg>