<?xml version="1.0" encoding="UTF-8"?>
<svg id="Layer_1" xmlns="http://www.w3.org/2000/svg" version="1.1" viewBox="0 0 213 133.1">
  <!-- Generator: Adobe Illustrator 29.1.0, SVG Export Plug-In . SVG Version: 2.1.0 Build 142)  -->
  <path d="M211,74.5l-17-37.5h0c-1.4-3.1-3.7-5.7-6.5-7.6-2.9-1.8-6.2-2.8-9.6-2.8h-31.4v-13.3c0-3.5-1.4-6.9-3.9-9.4-2.5-2.5-5.9-3.9-9.4-3.9H22.2c-3.5,0-6.9,1.4-9.4,3.9-2.5,2.5-3.9,5.9-3.9,9.4v53.2c0,1.6.8,3,2.2,3.8s3.1.8,4.4,0,2.2-2.3,2.2-3.8V13.3c0-1.2.5-2.3,1.3-3.1s2-1.3,3.1-1.3h110.9c1.2,0,2.3.5,3.1,1.3s1.3,2,1.3,3.1v71c0,1.2-.5,2.3-1.3,3.1s-2,1.3-3.1,1.3h-53.2c-1.6,0-3,.8-3.8,2.2s-.8,3.1,0,4.4,2.3,2.2,3.8,2.2h53.2c3.5,0,6.9-1.4,9.4-3.9,2.5-2.5,3.9-5.9,3.9-9.4v-48.8h31.4c1.7,0,3.4.5,4.8,1.4,1.4.9,2.6,2.2,3.3,3.8l1.7,3.7h-18.9c-2.4,0-4.6.9-6.3,2.6-1.7,1.7-2.6,3.9-2.6,6.3v17.7c0,2.4.9,4.6,2.6,6.3,1.7,1.7,3.9,2.6,6.3,2.6h34.9c.4,1.2.6,2.5.6,3.8v18.3c0,1.2-.5,2.3-1.3,3.1s-2,1.3-3.1,1.3h-13.8c-1.4-6.7-5.8-12.4-12-15.5-6.2-3-13.4-3-19.6,0-6.2,3-10.6,8.7-12,15.5h-71.9c-1.4-6.7-5.8-12.4-12-15.5-6.2-3-13.4-3-19.6,0-6.2,3-10.6,8.7-12,15.5h-4.9c-1.2,0-2.3-.5-3.1-1.3s-1.3-2-1.3-3.1v-4.4c1.6,0,3-.8,3.8-2.2s.8-3.1,0-4.4-2.3-2.2-3.8-2.2H4.4c-1.6,0-3,.8-3.8,2.2s-.8,3.1,0,4.4,2.3,2.2,3.8,2.2h4.4v4.4c0,3.5,1.4,6.9,3.9,9.4,2.5,2.5,5.9,3.9,9.4,3.9h4.9c1.4,6.7,5.8,12.4,12,15.5,6.2,3,13.4,3,19.6,0,6.2-3,10.6-8.7,12-15.5h71.9c1.4,6.7,5.8,12.4,12,15.5,6.2,3,13.4,3,19.6,0,6.2-3,10.6-8.7,12-15.5h13.8c3.5,0,6.9-1.4,9.4-3.9,2.5-2.5,3.9-5.9,3.9-9.4v-18.3c0-3.2-.7-6.3-2-9.2h0ZM48.8,124.2c-3.5,0-6.9-1.4-9.4-3.9-2.5-2.5-3.9-5.9-3.9-9.4,0-3.5,1.4-6.9,3.9-9.4,2.5-2.5,5.9-3.9,9.4-3.9,3.5,0,6.9,1.4,9.4,3.9,2.5,2.5,3.9,5.9,3.9,9.4,0,3.5-1.4,6.9-3.9,9.4-2.5,2.5-5.9,3.9-9.4,3.9h0ZM164.2,124.2c-3.5,0-6.9-1.4-9.4-3.9-2.5-2.5-3.9-5.9-3.9-9.4,0-3.5,1.4-6.9,3.9-9.4,2.5-2.5,5.9-3.9,9.4-3.9,3.5,0,6.9,1.4,9.4,3.9,2.5,2.5,3.9,5.9,3.9,9.4,0,3.5-1.4,6.9-3.9,9.4-2.5,2.5-5.9,3.9-9.4,3.9h0ZM168.6,53.2h23l8.1,17.7h-31v-17.7Z"/>
  <path d="M4.4,84.3h22.2c1.6,0,3-.8,3.8-2.2s.8-3.1,0-4.4-2.3-2.2-3.8-2.2H4.4c-1.6,0-3,.8-3.8,2.2s-.8,3.1,0,4.4,2.3,2.2,3.8,2.2Z"/>
</svg>