<?xml version="1.0" encoding="UTF-8"?>
<svg id="Layer_1" xmlns="http://www.w3.org/2000/svg" version="1.1" viewBox="0 0 120.9 146.4">
  <!-- Generator: Adobe Illustrator 29.1.0, SVG Export Plug-In . SVG Version: 2.1.0 Build 142)  -->
  <path d="M60.5,0C27.1,0,0,27.1,0,60.5s60.5,85.9,60.5,85.9c0,0,60.5-40,60.5-85.9S93.9,0,60.5,0h0Z" style="fill: #809fa4;"/>
  <g>
    <path d="M94.1,55.6c-2.1-14.8-13.6-26.2-28.4-28.4v-6.9h-10v6.9c-14.8,2.1-26.2,13.6-28.4,28.4h-7.2v10h6.9c2.1,14.8,13.6,26.2,28.4,28.4v6.9h10v-6.9c14.8-2.1,26.2-13.6,28.4-28.4h6.9v-10h-6.6ZM83.8,65.8c-2.1,9-9,16.3-18.1,18.1v-5.7h-10v5.7c-9-2.1-16.3-9-18.1-18.1h5.7v-10h-6c2.1-9,9-16.3,18.1-18.1v5.7h10v-6c9,2.1,16.3,9,18.1,18.1h-5.7v10h6v.3Z" style="fill: #fff;"/>
    <path d="M60.6,51c-5.4,0-9.7,4.2-9.7,9.7s4.2,9.7,9.7,9.7,9.7-4.2,9.7-9.7-4.2-9.7-9.7-9.7Z" style="fill: #fff;"/>
  </g>
</svg>