<?xml version="1.0" encoding="UTF-8"?>
<svg id="Layer_1" xmlns="http://www.w3.org/2000/svg" version="1.1" viewBox="0 0 120.9 146.4">
  <!-- Generator: Adobe Illustrator 29.1.0, SVG Export Plug-In . SVG Version: 2.1.0 Build 142)  -->
  <path d="M60.5,0C27.1,0,0,27.1,0,60.5s60.5,85.9,60.5,85.9c0,0,60.5-40,60.5-85.9S93.9,0,60.5,0h0Z" style="fill: #706f34;"/>
  <g>
    <polyline points="62.5 137.1 60.5 138.6 58.5 137.1" style="fill: none; stroke: #fff; stroke-miterlimit: 10;"/>
    <path d="M54.6,134C37.6,120.6,6.4,91.7,6.4,60.5S30.7,6.4,60.5,6.4s54.1,24.3,54.1,54.1-33.7,62.4-50.1,75.1" style="fill: none; stroke: #fff; stroke-dasharray: 4.9 4.9; stroke-miterlimit: 10;"/>
  </g>
  <g>
    <path d="M69.6,51.9c0,5.1-4.1,9.1-9.1,9.1s-9.1-4.1-9.1-9.1,4.1-9.1,9.1-9.1,9.1,4.1,9.1,9.1" style="fill: #fff;"/>
    <path d="M77,74.1c0-6-3-11.4-7.5-14.7-2.2,2.6-5.4,4.3-9,4.3s-6.8-1.7-9-4.2c-4.5,3.3-7.5,8.7-7.5,14.7s2.3,5.2,5.2,5.2h.8v13.1c0,2.9,2.3,5.2,5.2,5.2h10.5c2.9,0,5.2-2.3,5.2-5.2v-13.1h.8c2.9,0,5.2-2.3,5.2-5.2h0Z" style="fill: #fff;"/>
    <path d="M89.7,38.8c0,5.1-4.1,9.1-9.1,9.1s-9.1-4.1-9.1-9.1,4.1-9.1,9.1-9.1,9.1,4.1,9.1,9.1" style="fill: #fff;"/>
    <path d="M89.5,46.3c-2.2,2.6-5.4,4.3-9,4.3s-6.8-1.7-9-4.2c-.2.1-.4.3-.6.5.7,1.5,1.2,3.3,1.2,5.1s-.5,3.7-1.3,5.3h0c5.4,4,8.6,10.3,8.6,16.9s-2.6,6.8-6,7.6v2.5c.6.2,1.2.3,1.8.3h10.5c2.9,0,5.2-2.3,5.2-5.2v-13.1h.8c2.9,0,5.2-2.3,5.2-5.2,0-6.1-3-11.4-7.5-14.7h0Z" style="fill: #fff;"/>
    <path d="M49.5,38.8c0,5.1-4.1,9.1-9.1,9.1s-9.1-4.1-9.1-9.1,4.1-9.1,9.1-9.1,9.1,4.1,9.1,9.1" style="fill: #fff;"/>
    <path d="M41.4,74.1c0-6.6,3.2-12.9,8.6-16.8h0c-.8-1.7-1.3-3.5-1.3-5.4s.5-3.5,1.2-5.1c-.2-.2-.4-.3-.6-.5-2.2,2.6-5.4,4.2-9,4.2s-6.8-1.7-9-4.3c-4.5,3.3-7.5,8.7-7.5,14.7s2.3,5.2,5.2,5.2h.8v13.1c0,2.9,2.3,5.2,5.2,5.2h10.5c.6,0,1.2-.1,1.8-.3v-2.5c-3.5-.8-6-3.9-6-7.6h0Z" style="fill: #fff;"/>
  </g>
</svg>