<?xml version="1.0" encoding="UTF-8"?>
<svg id="Layer_1" xmlns="http://www.w3.org/2000/svg" version="1.1" viewBox="0 0 120.9 146.4">
  <!-- Generator: Adobe Illustrator 29.1.0, SVG Export Plug-In . SVG Version: 2.1.0 Build 142)  -->
  <path d="M60.5,0C27.1,0,0,27.1,0,60.5s60.5,85.9,60.5,85.9c0,0,60.5-40,60.5-85.9S93.9,0,60.5,0h0Z" style="fill: #016937;"/>
  <g>
    <polyline points="62.5 136.4 60.5 137.9 58.5 136.4" style="fill: none; stroke: #fff; stroke-miterlimit: 10;"/>
    <path d="M54.6,133.4C37.6,119.9,6.4,91,6.4,59.8S30.7,5.7,60.5,5.7s54.1,24.3,54.1,54.1-33.7,62.4-50.1,75.1" style="fill: none; stroke: #fff; stroke-dasharray: 4.9 4.9; stroke-miterlimit: 10;"/>
  </g>
  <path d="M90.7,49.3c3.9-3.9,5.3-9.3,4.3-14.3-.2-.7-1-.9-1.5-.5l-7.7,7.7c-.5.5-1.2.7-1.9.5l-5.9-1.5c-.7-.2-1.2-.7-1.4-1.4l-1.5-5.9c-.2-.7,0-1.5.5-1.9l7.7-7.7c.5-.5.2-1.4-.5-1.5-5.6-1.2-11.7.8-15.5,5.7-2.1,2.6-3.2,5.8-3.3,9-.2,4.3-1.9,8.4-5,11.4l-30.6,28.9c-3.4,3.2-3.5,8.5-.2,11.8,3.2,3.2,8.4,3.2,11.7,0l.2-.2,29-30.5c2.9-3.1,7-4.9,11.3-5,3.8-.2,7.6-1.7,10.5-4.6h0ZM32,85.7c-1.1-1.1-1.1-2.8,0-3.9s2.8-1.1,3.9,0,1.1,2.9,0,3.9c-1.1,1.1-2.8,1.1-3.9,0Z" style="fill: #fff;"/>
</svg>