<?xml version="1.0" encoding="UTF-8"?>
<svg id="Layer_1" xmlns="http://www.w3.org/2000/svg" version="1.1" viewBox="0 0 150 181.5">
  <!-- Generator: Adobe Illustrator 29.1.0, SVG Export Plug-In . SVG Version: 2.1.0 Build 142)  -->
  <defs>
    <style>
      .st0 {
        fill: #fff;
      }

      .st1 {
        fill: #fbb03b;
      }
    </style>
  </defs>
  <path class="st1" d="M75,0C33.6,0,0,33.6,0,75s75,106.5,75,106.5c0,0,75-49.6,75-106.5S116.4,0,75,0h0Z"/>
  <path class="st0" d="M105.9,65c2.3-1.9,3.7-4.8,3.7-7.9s-2-6.9-5-8.8c0-.2,0-.5-.2-.7-1.3-2.6-4.4-5.9-8.5-7.8,2.3-1.9,3.7-4.8,3.7-7.9,0-5.7-4.8-10.4-10.7-10.4s-10.7,4.7-10.7,10.4,1.4,5.9,3.7,7.9c-2.3,1.1-4.8,3.4-6.8,5.7-1.6-2.1-4.1-4.3-7.1-5.7,2.3-1.9,3.7-4.8,3.7-7.9,0-5.7-4.8-10.4-10.7-10.4s-10.7,4.7-10.7,10.4,1.4,5.9,3.7,7.9c-2.9,1.4-6.3,4.8-8.4,7.7-.2.2-.3.5-.3.8-3,1.8-5,5.1-5,8.8s1.4,5.9,3.7,7.9c-4,2-9.8,8.4-11.1,12.5-1,3.3-.2,12.4,0,13.2,0,4.1,3.2,7.5,7.3,8l.5,8.7c0,3.2,2.6,5.8,5.8,5.8h4.7s0,0,0,0,0,0,0,0h4.7c2.7,0,5-2,5.6-4.5.4,0,.8.2,1.2.2l.5,10.3c0,3.6,2.9,6.5,6.4,6.5h10.9c3.5,0,6.4-2.9,6.4-6.4l.5-10.4c.4,0,.8-.1,1.2-.2.6,2.6,2.9,4.5,5.6,4.5h4.7s0,0,0,0,0,0,0,0h4.7c3.2,0,5.8-2.6,5.8-5.8l.5-8.8c4.1-.5,7.3-3.9,7.2-7.8.1-1,.9-10.1,0-13.4-1.3-4-7.1-10.5-11.1-12.5h0ZM83.8,42.9c.7-.3,2-.6,3.4-.7.9,0,1.5-.8,1.6-1.6,0-.9-.5-1.6-1.4-1.8-3.3-.7-5.7-3.5-5.7-6.8s3.3-6.9,7.2-6.9,7.2,3.1,7.2,6.9-2.4,6.1-5.7,6.8c-.8.2-1.4.9-1.4,1.8,0,.9.7,1.6,1.6,1.6,1.5.1,2.7.4,3.4.7,2.1.9,4,2.4,5.3,3.9-.2,0-.4,0-.6,0-5.9,0-10.7,4.7-10.7,10.4s1.4,5.9,3.7,7.9c-2.5,1.2-5.3,3.8-7.3,6.3-.7-.5-1.4-.9-2-1.1,2.8-2.2,4.5-5.5,4.5-9.2,0-6-4.6-10.9-10.5-11.7,2.2-2.9,5.2-5.6,7.2-6.5h0ZM55.9,42.9c.7-.3,1.9-.6,3.4-.7.9,0,1.5-.8,1.6-1.6,0-.9-.5-1.6-1.4-1.8-3.3-.7-5.7-3.5-5.7-6.8s3.3-6.9,7.2-6.9,7.2,3.1,7.2,6.9-2.4,6.1-5.7,6.8c-.8.2-1.4.9-1.4,1.8,0,.9.7,1.6,1.6,1.6,1.5.1,2.7.4,3.4.7,3.4,1.5,6,4.2,7.1,6.2,0,0,0,.2,0,.2-6,.7-10.6,5.7-10.6,11.7s1.8,7,4.5,9.2c-.6.3-1.3.7-2,1.1-2.1-2.5-4.9-5.1-7.3-6.3,2.3-1.9,3.7-4.8,3.7-7.9,0-5.7-4.8-10.4-10.7-10.4s0,0-.1,0c1.7-1.8,3.6-3.3,4.9-3.8h0ZM55.8,109.7h-3v-13.5c0-1-.8-1.7-1.7-1.7s-1.7.8-1.7,1.7v13.5h-3c-1.3,0-2.3-1.1-2.3-2.5l-1.4-26c0-1-.9-1.7-1.8-1.6-1,0-1.7.9-1.6,1.8l.7,13.7c-2.1-.5-3.6-2.3-3.6-4.6-.4-3.6-.7-10,0-12,1-3.2,6.4-9.1,9.6-10.5.7-.3,2-.6,3.4-.7.9,0,1.5-.8,1.6-1.6,0-.9-.5-1.6-1.4-1.8-3.3-.7-5.7-3.5-5.7-6.8s3.3-6.9,7.2-6.9,7.2,3.1,7.2,6.9-2.4,6.1-5.7,6.8c-.8.2-1.4.9-1.4,1.8,0,.9.7,1.6,1.6,1.6,1.5.1,2.7.4,3.4.7,1.7.7,4.3,3,6.4,5.4-3.5,3.1-7.3,7.7-8.4,11.2-1.2,3.7-.2,14.2,0,15.2,0,2.9,1.5,5.6,3.9,7.3h0c0,1.5-1,2.5-2.3,2.5h0ZM86.8,87.3c-.9,0-1.8.7-1.8,1.6l-1.6,30.2c0,1.7-1.3,3-2.9,3h-3.7v-18.6c0-1-.8-1.7-1.7-1.7s-1.7.8-1.7,1.7v18.6h-3.7c-1.6,0-2.9-1.4-2.9-3.1l-1.6-30.1c0-1-.9-1.7-1.8-1.6-1,0-1.7.9-1.6,1.8l.8,16.2c-.6-.1-1.2-.3-1.7-.6-1.8-1-3-2.9-3-5-.4-4.2-.8-11.7,0-14,.9-2.8,4.8-7.7,8.5-10.6,1-.8,1.9-1.4,2.7-1.7.9-.4,2.4-.7,4.1-.8.9,0,1.5-.8,1.6-1.6,0-.9-.5-1.6-1.4-1.8-3.9-.8-6.8-4.2-6.8-8.1s3.9-8.3,8.7-8.3,8.7,3.7,8.7,8.3-2.9,7.3-6.8,8.1c-.8.2-1.4.9-1.4,1.8,0,.9.7,1.6,1.6,1.6,1.7.1,3.2.4,4.1.8.8.3,1.7.9,2.7,1.7,3.7,2.9,7.6,7.8,8.5,10.6.7,2.3.3,9.8,0,14.2,0,2-1.1,3.9-3,4.9-.5.3-1.1.5-1.7.6l.8-16.2c0-1-.7-1.8-1.6-1.8h0ZM113.6,90.7c0,2.1-1.5,3.9-3.6,4.4l.7-13.7c0-1-.7-1.8-1.6-1.8-.9,0-1.8.7-1.8,1.6l-1.4,26.1c0,1.3-1,2.4-2.3,2.4h-3v-13.5c0-1-.8-1.7-1.7-1.7s-1.7.8-1.7,1.7v13.5h-3c-1.3,0-2.3-1.1-2.3-2.5h0c2.4-1.8,3.9-4.5,3.9-7.2.1-1.2,1.1-11.6,0-15.4-1.1-3.5-4.9-8.1-8.4-11.2,2.1-2.5,4.7-4.7,6.4-5.5.7-.3,2-.6,3.4-.7.9,0,1.5-.8,1.6-1.6,0-.9-.5-1.6-1.4-1.8-3.3-.7-5.7-3.5-5.7-6.8s3.3-6.9,7.2-6.9,7.2,3.1,7.2,6.9-2.4,6.1-5.7,6.8c-.8.2-1.4.9-1.4,1.8,0,.9.7,1.6,1.6,1.6,1.5.1,2.7.4,3.4.7,3.2,1.4,8.5,7.3,9.6,10.5.6,2,.3,8.4,0,12.2h0Z"/>
</svg>