<?xml version="1.0" encoding="UTF-8"?>
<svg width="1200pt" height="1200pt" version="1.1" viewBox="0 0 1200 1200" xmlns="http://www.w3.org/2000/svg">
 <path transform="scale(8.3333)" d="m26.89 37.505 81.439-21.471" fill="none" stroke="#000" stroke-linecap="round" stroke-miterlimit="10" stroke-width="8"/>
 <path transform="scale(8.3333)" d="m108.33 17.158 18.047 109.14" fill="none" stroke="#000" stroke-linecap="round" stroke-miterlimit="10" stroke-width="8"/>
 <path transform="scale(8.3333)" d="m126.38 127.39-100.61-21.406" fill="none" stroke="#000" stroke-linecap="round" stroke-miterlimit="10" stroke-width="8"/>
 <path transform="scale(8.3333)" d="m24.311 105.4 2.9062-66.921" fill="none" stroke="#000" stroke-linecap="round" stroke-miterlimit="10" stroke-width="8"/>
 <path transform="scale(8.3333)" d="m110.2 109.04h27.84v26.674h-27.84z" stroke="#000" stroke-linejoin="bevel" stroke-miterlimit="10" stroke-width="2"/>
 <path transform="scale(8.3333)" d="m115.97 113.89h17.306v16.052h-17.306z" stroke="#000" stroke-linejoin="bevel" stroke-miterlimit="10" stroke-width="2"/>
 <path transform="scale(8.3333)" d="m94.409 3.8208h27.84v26.674h-27.84z" stroke="#000" stroke-linejoin="bevel" stroke-miterlimit="10" stroke-width="2"/>
 <path transform="scale(8.3333)" d="m100.18 8.6752h17.306v16.052h-17.306z" stroke="#000" stroke-linejoin="bevel" stroke-miterlimit="10" stroke-width="2"/>
 <path transform="scale(8.3333)" d="m13.297 92.061h27.84v26.674h-27.84z" stroke="#000" stroke-linejoin="bevel" stroke-miterlimit="10" stroke-width="2"/>
 <path transform="scale(8.3333)" d="m19.065 96.915h17.306v16.052h-17.306z" stroke="#000" stroke-linejoin="bevel" stroke-miterlimit="10" stroke-width="2"/>
 <path transform="scale(8.3333)" d="m12.97 25.139h27.84v26.674h-27.84z" stroke="#000" stroke-linejoin="bevel" stroke-miterlimit="10" stroke-width="2"/>
 <path transform="scale(8.3333)" d="m18.738 29.994h17.306v16.052h-17.306z" stroke="#000" stroke-linejoin="bevel" stroke-miterlimit="10" stroke-width="2"/>
</svg>
