<?xml version="1.0" encoding="UTF-8"?>
<svg id="Layer_1" xmlns="http://www.w3.org/2000/svg" version="1.1" viewBox="0 0 150 181.5">
  <!-- Generator: Adobe Illustrator 29.1.0, SVG Export Plug-In . SVG Version: 2.1.0 Build 142)  -->
  <defs>
    <style>
      .st0 {
        fill: #fff;
      }

      .st1 {
        fill: #006837;
      }
    </style>
  </defs>
  <path class="st1" d="M75,0C33.6,0,0,33.6,0,75s75,106.5,75,106.5c0,0,75-49.6,75-106.5S116.4,0,75,0h0Z"/>
  <g>
    <path class="st0" d="M32.9,55.6v5.9h5v-7.8h-3c-1.1,0-2,.9-2,1.9h0Z"/>
    <path class="st0" d="M91.5,46.9h0c-.8,0-1.5.7-1.5,1.5v53.2c0,.8.7,1.5,1.5,1.5h0c.8,0,1.5-.7,1.5-1.5v-53.2c0-.8-.7-1.5-1.5-1.5h0Z"/>
    <path class="st0" d="M41.3,46.9h0c-.8,0-1.5.7-1.5,1.5v53.2c0,.8.7,1.5,1.5,1.5h0c.8,0,1.5-.7,1.5-1.5v-53.2c0-.8-.7-1.5-1.5-1.5h0Z"/>
    <path class="st0" d="M44.7,64.3h43.4v21.3h-43.4v-21.3Z"/>
    <path class="st0" d="M30.9,64.4v5.8c0,.6.5,1,1,1h5.9v-7.8s-5.9,0-5.9,0c-.6,0-1,.5-1,1h0Z"/>
    <path class="st0" d="M32.9,73h5v3.9h-5v-3.9Z"/>
    <path class="st0" d="M31,72.9c-1.1-.4-2-1.5-2-2.7v-2h-2.1v13.6h2.1v-2c0-1.3.8-2.3,2-2.7v-4.2Z"/>
    <path class="st0" d="M19.1,68.2h6v13.6h-6v-13.6Z"/>
    <path class="st0" d="M32.9,94.4c0,1.1.9,1.9,2,1.9h3v-7.8h-5s0,5.9,0,5.9Z"/>
    <path class="st0" d="M30.9,79.8v5.8c0,.6.5,1,1,1h5.9v-7.8s-5.9,0-5.9,0c-.6,0-1,.5-1,1h0Z"/>
    <path class="st0" d="M96.4,52.7h0c-.8,0-1.5.7-1.5,1.5v40.6c0,.8.7,1.5,1.5,1.5h0c.8,0,1.5-.7,1.5-1.5v-34.8s0-5.8,0-5.8c0-.8-.7-1.5-1.5-1.5h0Z"/>
    <path class="st0" d="M104.7,64.3h17.8v2h-17.8v-2Z"/>
    <path class="st0" d="M104.7,72.1h17.8v2h-17.8v-2Z"/>
    <path class="st0" d="M124.3,69.2h8.9v11.7h-8.9v-11.7Z"/>
    <path class="st0" d="M104.7,68.2h17.8v2h-17.8v-2Z"/>
    <path class="st0" d="M104.7,83.7h17.8v2h-17.8v-2Z"/>
    <path class="st0" d="M101.3,58.5h0c-.8,0-1.5.7-1.5,1.5v29.9c0,.8.7,1.5,1.5,1.5h0c.8,0,1.5-.7,1.5-1.5v-29.9c0-.8-.7-1.5-1.5-1.5h0Z"/>
    <path class="st0" d="M104.7,75.9h17.8v2h-17.8v-2Z"/>
    <path class="st0" d="M104.7,79.8h17.8v2h-17.8v-2Z"/>
  </g>
</svg>