<?xml version="1.0" encoding="UTF-8"?>
<svg id="Layer_1" xmlns="http://www.w3.org/2000/svg" version="1.1" viewBox="0 0 150 181.5">
    <defs>
        <style>
            .st50 {
            fill: #f2f2f2;
            }

            .st51 {
            fill: aqua;
            }
        </style>
    </defs>
    <path class="st51" d="M75,0C33.6,0,0,33.6,0,75s75,106.5,75,106.5c0,0,75-49.6,75-106.5S116.4,0,75,0h0Z"/>
    <g>
        <path class="st50" d="M116.7,68.9c-2.6-18.3-16.8-32.5-35.2-35.2v-8.6h-12.3v8.6c-18.3,2.6-32.5,16.8-35.2,35.2h-9v12.3h8.6c2.6,18.3,16.8,32.5,35.2,35.2v8.6h12.3v-8.6c18.3-2.6,32.5-16.8,35.2-35.2h8.6v-12.3h-8.2ZM104,81.6c-2.6,11.2-11.2,20.2-22.4,22.4v-7.1h-12.3v7.1c-11.2-2.6-20.2-11.2-22.4-22.4h7.1v-12.3h-7.5c2.6-11.2,11.2-20.2,22.4-22.4v7.1h12.3v-7.5c11.2,2.6,20.2,11.2,22.4,22.4h-7.1v12.3h7.5v.4Z"/>
        <path class="st50" d="M75.2,63.3c-6.7,0-12,5.2-12,12s5.2,12,12,12,12-5.2,12-12-5.2-12-12-12Z"/>
    </g>
</svg>
