<?xml version="1.0" encoding="UTF-8"?>
<svg width="1200pt" height="1200pt" version="1.1" viewBox="0 0 1200 1200" xmlns="http://www.w3.org/2000/svg">
 <path d="m1026 480c4.7734 0 9.3516-1.8945 12.727-5.2734 3.3789-3.375 5.2734-7.9531 5.2734-12.727v-288c0-4.7734-1.8945-9.3516-5.2734-12.727-3.375-3.3789-7.9531-5.2734-12.727-5.2734h-288c-4.7734 0-9.3516 1.8945-12.727 5.2734-3.3789 3.375-5.2734 7.9531-5.2734 12.727v264h-240v-264c0-4.7734-1.8945-9.3516-5.2734-12.727-3.375-3.3789-7.9531-5.2734-12.727-5.2734h-288c-4.7734 0-9.3516 1.8945-12.727 5.2734-3.3789 3.375-5.2734 7.9531-5.2734 12.727v288c0 4.7734 1.8945 9.3516 5.2734 12.727 3.375 3.3789 7.9531 5.2734 12.727 5.2734h264v240h-264c-4.7734 0-9.3516 1.8945-12.727 5.2734-3.3789 3.375-5.2734 7.9531-5.2734 12.727v288c0 4.7734 1.8945 9.3516 5.2734 12.727 3.375 3.3789 7.9531 5.2734 12.727 5.2734h288c4.7734 0 9.3516-1.8945 12.727-5.2734 3.3789-3.375 5.2734-7.9531 5.2734-12.727v-264h240v264c0 4.7734 1.8945 9.3516 5.2734 12.727 3.375 3.3789 7.9531 5.2734 12.727 5.2734h288c4.7734 0 9.3516-1.8945 12.727-5.2734 3.3789-3.375 5.2734-7.9531 5.2734-12.727v-288c0-4.7734-1.8945-9.3516-5.2734-12.727-3.375-3.3789-7.9531-5.2734-12.727-5.2734h-264v-240zm-582 528h-252v-252h250.68l1.3203 1.3203zm0-565.32-1.3203 1.3203h-250.68v-252h252zm282 282-1.3203 1.3203h-249.36l-1.3203-1.3203v-249.36l1.3203-1.3203h249.36l1.3203 1.3203zm282 31.32v252h-252v-250.68l1.3203-1.3203zm-250.68-312-1.3203-1.3203v-250.68h252v252z"/>
</svg>
