<?xml version="1.0" encoding="UTF-8"?>
<svg id="Layer_1" xmlns="http://www.w3.org/2000/svg" version="1.1" viewBox="0 0 137.4 146">
  <!-- Generator: Adobe Illustrator 29.1.0, SVG Export Plug-In . SVG Version: 2.1.0 Build 142)  -->
  <path d="M136.7,0H.7c-.4,0-.7.3-.7.7v144.9c0,.4.2.5.5.2l51.3-51.3c.3-.3.7-.3,1,0l24.1,24.1c.3.3.7.3,1,0l38.9-38.9c.3-.3.7-.3,1,0l19.1,19.1c.3.3.5.2.5-.2V.7c0-.4-.3-.7-.7-.7Z" style="fill: #841719;"/>
  <path d="M109.7,36.5l-15.6.4c-.3,0-.6.2-.8.4l-7.7,7.7c-.2.2-.5.2-.7,0l-6.3-6.3-27.1-27.2c-.2-.2-.3-.1-.3.1l.4,15.6c0,.3.2.6.4.8l7.7,7.7s0,0,0,.1l-.7.7h0l-.7.7c-.2.2-.4.4-.6.6l-31.7,31.7c-.2.2-.1.3.1.3l15.6-.4c.3,0,.6-.2.8-.4l7.7-7.7c.2-.2.5-.2.7,0l7.4,7.4c.2.2.5.5.6.6s0,0,0,0c.8.8,1.4,1.4,1.5,1.5l7.4,7.4s0,0,0,0l16.6,16.6c.2.2.3.1.3-.1l-.4-15.6c0-.3-.2-.6-.4-.8l-7.7-7.7s0,0-.1-.2l.7-.7h0s.3-.3.7-.7l8.1-8.1,2.5-2.5,21.7-21.7c.2-.2.1-.3-.1-.3ZM75.7,53.6l-7.4,7.4c-.1.1-.4.2-.5,0,0,0,0,0-.1,0l-7.4-7.4c-.2-.2-.2-.5,0-.7l7.1-7.1.3-.3c.2-.2.5-.2.7,0l7.4,7.4c.2.2.2.5,0,.7Z" style="fill: #fff;"/>
</svg>