<?xml version="1.0" encoding="UTF-8"?>
<svg id="Layer_1" xmlns="http://www.w3.org/2000/svg" version="1.1" viewBox="0 0 120.9 146.4">
  <!-- Generator: Adobe Illustrator 29.1.0, SVG Export Plug-In . SVG Version: 2.1.0 Build 142)  -->
  <path d="M60.5,0C27.1,0,0,27.1,0,60.5s60.5,85.9,60.5,85.9c0,0,60.5-40,60.5-85.9S93.9,0,60.5,0h0Z" style="fill: #84a9b1;"/>
  <path d="M59,85.4h-13.9V29.7h19.4c8.5,0,12.9,1.2,16.1,4.5,3.1,3.2,4.3,7.1,4.3,14.2s-1.6,11.5-5.1,14.5c-3.2,2.8-7.4,3.8-15.3,3.8h-5.5v18.6ZM64.6,55.7c4.9,0,6.6-1.9,6.6-7.5s-1.6-7.5-6.6-7.5h-5.8v15h5.8Z" style="fill: #fff;"/>
</svg>