<?xml version="1.0" encoding="UTF-8"?>
<svg id="Layer_1" xmlns="http://www.w3.org/2000/svg" version="1.1" viewBox="0 0 150 181.5">
  <!-- Generator: Adobe Illustrator 29.1.0, SVG Export Plug-In . SVG Version: 2.1.0 Build 142)  -->
  <defs>
    <style>
      .st0 {
        fill: #3f8983;
      }
    </style>
  </defs>
  <path class="st0" d="M75,0C33.6,0,0,33.6,0,75s75,106.5,75,106.5c0,0,75-49.6,75-106.5S116.4,0,75,0h0ZM75,133.3c-32.2,0-58.3-26.1-58.3-58.3s26.1-58.3,58.3-58.3,58.3,26.1,58.3,58.3-26.1,58.3-58.3,58.3Z"/>
  <g>
    <path class="st0" d="M65.8,41.7h4.9v46.3h-4.9v-46.3Z"/>
    <path class="st0" d="M107.2,44.2c-1.7,2.9-4.9,4.8-8.5,4.8s-6.8-2-8.5-4.9c-1.7-2.9-4.9-4.9-8.5-4.9s-6.8,2-8.5,4.9h0v24.3c1.7-2.9,4.9-4.8,8.5-4.8s6.8,2,8.5,4.9c1.7,2.9,4.9,4.9,8.5,4.9s6.8-2,8.5-4.9h0v-24.3Z"/>
  </g>
  <g>
    <path class="st0" d="M81.9,97l12.5-7.1c.4-.2.9-.4,1.4-.4,1,0,1.9.3,2.6.9.5.5.8,1.1,1,1.8l-16.5,9c0-.4.1-.7.1-1.1,0-1.1-.4-2.2-1.1-3.1h0Z"/>
    <path class="st0" d="M79.9,95.4c.2,0,.3.1.4.2l10-5.7h0c-.4-.4-.8-.7-1.3-.8-.9-.3-2-.2-2.8.3l-8.7,5,2.4,1h0Z"/>
    <path class="st0" d="M47.3,95.7c-.2-.3-.6-.4-.9-.2l-4.6,2.7c-.3.2-.4.6-.2.9l9,15.5c.2.3.6.4.9.2l4.6-2.7c.3-.2.4-.6.2-.9l-9-15.5Z"/>
    <path class="st0" d="M106.4,94c-.4-.7-1.1-1.2-1.9-1.4-.8-.2-1.6,0-2.3.3l-21.9,11.9c-.2,0-.3.2-.5.2-.4.1-.7.2-1.1.2-.5,0-1,0-1.5-.3l-14.1-5.8c-.3-.1-.5-.4-.6-.8,0-.3,0-.7.4-.9.3-.2.6-.3,1-.1l14.1,5.8h0c.2,0,.5.1.7.1.2,0,.5,0,.7-.2,1.1-.6,1.7-1.8,1.7-3,0-.6-.2-1.2-.5-1.7-.4-.5-.8-.9-1.4-1.1l-13.8-5.9c-2.3-1-5-.6-7.9,1.1l-7.3,4.2,6.9,11.9c2-.5,4.1-.4,6.1.1l12.2,3.3c1.3.4,2.7.5,4.1.3,1.4-.2,2.7-.6,3.9-1.4l22-12.7c.7-.4,1.2-1.1,1.4-1.8.2-.8.1-1.6-.3-2.3h0Z"/>
  </g>
</svg>