<?xml version="1.0" encoding="UTF-8"?>
<svg id="Layer_1" xmlns="http://www.w3.org/2000/svg" version="1.1" viewBox="0 0 120.9 147.9">
  <!-- Generator: Adobe Illustrator 29.1.0, SVG Export Plug-In . SVG Version: 2.1.0 Build 142)  -->
  <path d="M60.5,0C27.1,0,0,27.4,0,61.1s60.5,86.8,60.5,86.8c0,0,60.5-40.4,60.5-86.8S93.9,0,60.5,0h0Z" style="fill: #b73726;"/>
  <g>
    <path d="M32,30.1h7.1v68.1h-7.1V30.1Z" style="fill: #fff;"/>
    <path d="M92.2,33.8c-2.5,4.2-7.1,7-12.3,7s-9.9-2.9-12.4-7.2c-2.5-4.3-7.1-7.2-12.4-7.2s-9.9,2.9-12.4,7.2h0v35.7c2.5-4.2,7.1-7.1,12.4-7.1s9.9,2.9,12.4,7.2c2.5,4.3,7.1,7.2,12.4,7.2s9.9-2.9,12.4-7.2h0v-35.7Z" style="fill: #fff;"/>
  </g>
</svg>