<?xml version="1.0" encoding="UTF-8"?>
<svg id="Layer_1" xmlns="http://www.w3.org/2000/svg" version="1.1" viewBox="0 0 120.9 146.4">
  <!-- Generator: Adobe Illustrator 29.1.0, SVG Export Plug-In . SVG Version: 2.1.0 Build 142)  -->
  <path d="M60.5,0C27.1,0,0,27.1,0,60.5s60.5,85.9,60.5,85.9c0,0,60.5-40,60.5-85.9S93.9,0,60.5,0h0Z" style="fill: #f26e36;"/>
  <g>
    <path d="M32,29.8h7.1v67.4h-7.1V29.8Z" style="fill: #fff;"/>
    <path d="M92.2,33.5c-2.5,4.2-7.1,7-12.3,7s-9.9-2.8-12.4-7.1c-2.5-4.2-7.1-7.1-12.4-7.1s-9.9,2.8-12.4,7.1h0v35.4c2.5-4.2,7.1-7,12.4-7s9.9,2.8,12.4,7.1c2.5,4.2,7.1,7.1,12.4,7.1s9.9-2.8,12.4-7.1h0v-35.3Z" style="fill: #fff;"/>
  </g>
</svg>