<?xml version="1.0" encoding="UTF-8"?>
<svg id="Layer_1" xmlns="http://www.w3.org/2000/svg" version="1.1" viewBox="0 0 120.9 147.9">
  <!-- Generator: Adobe Illustrator 29.1.0, SVG Export Plug-In . SVG Version: 2.1.0 Build 142)  -->
  <path d="M60.5.8C27.1.8,0,27.8,0,61.2s60.5,85.9,60.5,85.9c0,0,60.5-40,60.5-85.9S93.9.8,60.5.8h0Z" style="fill: #b73726;"/>
  <g>
    <path d="M62.1,86.6h26.2c2.8,0,5-2.2,5-5s-1.6-4.2-3.8-4.8c0,0,0-.2,0-.2,2.8,0,5-2.2,5-5s-1.6-4.2-3.8-4.8c0,0,0-.2,0-.2,2.8,0,5-2.2,5-5s-1.6-4.2-3.8-4.8c0,0,0-.2,0-.2,2.8,0,5-2.2,5-5s-2.2-5-5-5-6.8,0-10.1,0c-2.1,0-6.2,0-9.1,0-1.5,0-2.6-1.5-2.1-2.9,1.5-4.4,4.1-12.4,4.5-15,1.2-6.1-8.4-8-10.3-3.2-1.8,4.5-8.8,18.2-17.1,23.3-1,.6-1.6,1.7-1.6,2.8v28c0,1.9,6.6,6.8,16,6.8h0Z" style="fill: #fff;"/>
    <path d="M42.1,52.3v28.2c0,2-1.6,3.7-3.7,3.7h-10.7c-2,0-3.7-1.6-3.7-3.7v-28.2c0-2,1.6-3.7,3.7-3.7h10.7c2,0,3.7,1.6,3.7,3.7Z" style="fill: #fff;"/>
  </g>
</svg>