<?xml version="1.0" encoding="UTF-8"?>
<svg id="Layer_1" xmlns="http://www.w3.org/2000/svg" version="1.1" viewBox="0 0 96.2 96.2">
  <!-- Generator: Adobe Illustrator 29.1.0, SVG Export Plug-In . SVG Version: 2.1.0 Build 142)  -->
  <path d="M36.2,49.1c0,0,.2,0,.2-.1,0,0-.2,0-.2.1Z" style="fill: none;"/>
  <path d="M60.8,52l-3.2,17.4s0,0,.1,0l3.2-17.4h-.1Z" style="fill: none;"/>
  <path d="M37.8,48.4c.1,0,.3,0,.4-.1-.1,0-.3,0-.4.1Z" style="fill: none;"/>
  <path d="M48.5,66.6c-.3.2-.5.4-.8.7.3-.2.5-.4.8-.7Z" style="fill: none;"/>
  <path d="M36.1,49.2c-.4.2-.8.5-1.2.7-.3.3-.7.5-1,.8.3-.2.5-.5.9-.7.4-.3.8-.6,1.3-.8Z" style="fill: none;"/>
  <path d="M48.7,51.2c2.1,2.2,3.2,5.4,3.2,7.7s-.7,4.4-2,6.2c-.4.4-.8.9-1.1,1.2,0,0,0,0,0,0,.4-.4.8-.8,1.2-1.3,1.3-1.8,2-3.2,2-6.2s-1.1-5.6-3.2-7.7c-2.2-2.2-5.2-3.2-7.6-3.2s-2,.1-2.9.4c.8-.2,1.7-.3,2.8-.3,3,0,5.5,1.1,7.6,3.2Z" style="fill: none;"/>
  <path d="M68.1,45.5c0,0,0-.1,0-.2h-16.9l-.2.2h17.1Z" style="fill: none;"/>
  <path d="M34.2,31.9l6.8-6.9,16.2,8.7c.5.3.8.7,1.1,1.1-.2-.5-.6-1-1.2-1.3l-16.2-8.7-6.8,6.9c-1.8,2.4-2.1,5.2-.6,8.4h0c-1.4-3.1-1.2-5.9.7-8.2Z" style="fill: none;"/>
  <path d="M29.7,47.9c2.1-2.1,4.5-3.5,7.2-4.2,1.4-1.4,2.4-2.4,3.1-3.1,1.3-1.3,3.3-3.3,5.9-5.9h-.2c-2.6,2.4-4.5,4.4-5.8,5.7s-1.7,1.7-3.1,3.1c-2.7.7-5.1,2.1-7.2,4.2-3.1,3.2-4.7,7-4.7,11.4v-.2c-.1,2.9.6,5.5,1.9,7.8-1.2-2.2-1.8-4.7-1.8-7.4,0-4.4,1.6-8.2,4.7-11.4Z" style="fill: none;"/>
  <path d="M60.3,31.3l1.4,1.6s.7.8,1.5.3c.6-.4,1.1-.7,1.1-.4,0-.4-.5-.1-1.1.3-.8.5-1.5-.3-1.5-.3l-1.4-1.6c-.4-.5-.5-.9-.6-1.2,0,.3,0,.7.6,1.3Z" style="fill: none;"/>
  <path d="M63,32.3h0c.6-.3,1-.6,1.5-.5.2-.3.5-1.2.8-2.3h-.1c-.3,1.2-.7,1.9-.8,2.2-.5,0-.9.2-1.5.6Z" style="fill: none;"/>
  <path d="M60.1,21.1c6.2-.4,7.2,5.6,7.2,5.6l2,2.5h0s-2.1-2.6-2.1-2.6h0c0-.1-1.1-6.1-7.2-5.7-6.1.4-5.9,7.6-5.9,7.6h0c0-1.1.4-7,5.9-7.4Z" style="fill: none;"/>
  <path d="M33.4,51.2c0,0,.1-.1.2-.2,0,0,0,0-.1,0-.4.3-.6.6-.9,1,.3-.3.5-.6.8-.9Z" style="fill: none;"/>
  <path d="M62.6,32.2h0c0,.1.2.2.3.2h0c0-.1-.1-.1-.1-.1,0,0-.2,0-.2-.1Z" style="fill: none;"/>
  <path d="M48.2,0L0,48l48,48.2,48.2-48L48.2,0ZM64.4,64.5c-.5,2.9-2.8,4.6-6.7,5.1v-.2s0,0-.1,0l3.2-17.4h-5.3c1.1,2.1,1.6,2.6,1.6,7.1s-1.5,8.3-4.7,11.4v.2c-3.1,3.2-6.8,4.8-11.3,4.8s-8.3-1.6-11.4-4.8c-1.2-1.2-2.2-2.6-2.9-4-1.3-2.3-2-4.9-2-7.8v.2c.1-4.4,1.7-8.2,4.8-11.4,2.1-2.1,4.5-3.5,7.2-4.2,1.4-1.4,2.4-2.4,3.1-3.1,1.3-1.3,3.3-3.3,5.8-5.8l-3.8-2.2-8.3,7.9c0,0,0-.1,0-.2h0c-1.5-3.2-1.2-6,.6-8.4l6.8-6.9,16.2,8.7c.5.3.9.8,1.2,1.3.3.5.4,1.1.4,1.7s-.2,1.3-.6,1.9l-6.9,6.9h16.9c0,0,0,.1,0,.2h.1c-2,9.7-3.3,16.1-3.8,19ZM62.2,28.6l3.1.7c0,0,0,0,0,.1h.1c-.3,1.2-.6,2.1-.8,2.4-.5,0-.9.2-1.5.5h-.2c-.1.1-.3,0-.3,0h0c0,0,0,0,0,0l-1.4-1.6c-.3-.3-.3-.5-.3-.5l.6-1.2c0,0,.6,0,.9,0h0ZM62.5,27.8s-1.6-.4-2.1.7l-.6,1.3s0,0,0,.2c0,.3.1.7.6,1.2l1.4,1.6s.7.8,1.5.3c.6-.4,1.1-.7,1.1-.3,0,.1,0,.3-.1.6-.4,1.1-1.1,2.4-2.3,3.5l-6.5-6.9-1.2-1.4h0c0,0,0,0,0,0h0s-.2-7.2,5.9-7.6c6.1-.4,7.2,5.6,7.2,5.6h0c0,.1,2.1,2.7,2.1,2.7h0s0,0,0,0l-6.9-1.5Z"/>
  <path d="M32.6,52.1c0,.1-.2.3-.3.4-1.3,1.8-2,3.9-2,6.2,0,3,1.1,5.5,3.2,7.6,2.2,2.1,5.4,3.2,7.7,3.2s4.4-.7,6.2-2c.1,0,.2-.2.3-.3.3-.2.5-.4.8-.7,0,0,.2-.1.2-.2.4-.4.8-.9,1.1-1.2,1.3-1.8,2-3.9,2-6.2s-1.1-5.5-3.2-7.7c-2.1-2.1-4.6-3.2-7.6-3.2s-2,0-2.8.3c0,0,0,0,0,0-.2,0-.3,0-.4.1-.5.2-.9.3-1.3.5,0,0-.2,0-.2.1,0,0,0,0-.1,0-.4.2-.8.5-1.3.8-.3.2-.6.5-.9.7-.1.1-.2.2-.3.3,0,0-.1.1-.2.2-.3.3-.5.6-.8.9Z"/>
  <path d="M51,45.5l.2-.2,6.9-6.9c.4-.6.6-1.2.6-1.9s-.1-1.2-.4-1.7c-.2-.4-.6-.8-1.1-1.1l-16.2-8.7-6.8,6.9c-1.9,2.3-2.1,5.1-.7,8.2,0,0,0,.1,0,.2l8.3-7.9,3.8,2.2h.2c-2.6,2.7-4.6,4.7-5.9,6-.7.7-1.7,1.7-3.1,3.1-2.7.7-5.1,2.1-7.2,4.2-3.1,3.2-4.7,7-4.7,11.4s.6,5.2,1.8,7.4c.7,1.4,1.7,2.8,2.9,4,3.1,3.2,6.9,4.8,11.4,4.8s8.2-1.6,11.4-4.8v-.2c3.1-3.1,4.6-6.9,4.6-11.4s-.5-5-1.6-7.1h5.4l-3.2,17.4v.2c3.9-.5,6.2-2.2,6.7-5.1.5-2.9,1.8-9.3,3.8-19h-17.2ZM33.5,51.1s0,0,.1,0c.1-.1.2-.2.3-.3.3-.3.6-.5,1-.8.4-.3.8-.5,1.2-.7,0,0,0,0,.1,0,0,0,.2,0,.2-.1.4-.2.9-.4,1.3-.5.1,0,.3,0,.4-.1,0,0,0,0,0,0,.9-.3,1.9-.4,2.9-.4,2.4,0,5.4,1,7.6,3.2,2.1,2.1,3.2,4.7,3.2,7.7s-.7,4.4-2,6.2c-.4.5-.8.9-1.2,1.3,0,0,0,0,0,0,0,0-.2.1-.2.2-.2.2-.5.4-.8.7-.1,0-.2.2-.3.3-1.8,1.3-3.9,2-6.2,2s-5.5-1.1-7.7-3.2c-2.1-2.1-3.2-4.6-3.2-7.6,0-2.4.7-4.5,2-6.2.1-.1.2-.3.3-.4.3-.4.5-.7.9-1Z" style="fill: #fff;"/>
  <path d="M67.3,26.7s-1-6-7.2-5.6c-5.5.4-5.9,6.3-5.9,7.4,0,.1,0,.2,0,.2h0c0,0,1.2,1.3,1.2,1.3l6.5,6.9c1.2-1.1,1.9-2.4,2.3-3.5.1-.3.1-.5.1-.6,0-.3-.5,0-1.1.4-.8.5-1.5-.3-1.5-.3l-1.4-1.6c-.5-.6-.6-1-.6-1.3,0-.1,0-.2,0-.2l.6-1.3c.5-1.1,2.1-.7,2.1-.7l6.9,1.5h0c0-.1-2-2.6-2-2.6Z" style="fill: #fff;"/>
  <path d="M60.8,30s0,.2.3.5l1.4,1.6s0,0,0,0c0,0,.2.1.2.1h.2c.6-.4,1-.7,1.5-.6,0-.3.5-1,.8-2.3,0,0,0,0,0-.1l-3.1-.7h0c-.3,0-.9,0-.9.2l-.6,1.2Z" style="fill: #fff;"/>
</svg>