<?xml version="1.0" encoding="UTF-8"?>
<svg id="Layer_1" xmlns="http://www.w3.org/2000/svg" version="1.1" viewBox="0 0 89.9 89.9">
  <!-- Generator: Adobe Illustrator 29.1.0, SVG Export Plug-In . SVG Version: 2.1.0 Build 142)  -->
  <path d="M89.9,44.9C89.9,20.1,69.8,0,44.9,0S0,20.1,0,44.9s20.1,44.9,44.9,44.9,44.9-20.1,44.9-44.9ZM38.4,29.2l-8.3,7.9c-1.5-3.2-1.2-6,.6-8.4l6.8-6.9,16.2,8.7c1,.6,1.5,1.6,1.5,2.8s-.2,1.4-.6,1.9l-7.1,7.1h17.2c-2,9.7-3.3,16.1-3.8,19-.5,2.9-2.7,4.6-6.7,5.1l3.2-17.6h-5.4c1.1,2.2,1.6,4.5,1.6,7.1,0,4.5-1.6,8.3-4.7,11.4-3.2,3.2-7,4.8-11.4,4.8s-8.2-1.6-11.4-4.8c-3.1-3.1-4.7-6.9-4.7-11.4s1.6-8.2,4.7-11.4c2.1-2.1,4.5-3.5,7.2-4.2,1.4-1.4,2.4-2.4,3.1-3.1,1.3-1.3,3.3-3.3,5.9-5.9l-4-2.3ZM63.8,23.6l2.1,2.6-6.9-1.5s-1.6-.5-2.1.7l-.6,1.3s-.3.6.5,1.5l1.4,1.6s.7.8,1.5.3c.8-.5,1.4-.9,1,.2-.4,1.1-1.1,2.4-2.3,3.5l-6.5-6.9-1.2-1.4s-.2-7.2,5.9-7.6h0c6.1-.4,7.2,5.6,7.2,5.6ZM61.9,26.4c-.3,1.2-.6,2.1-.8,2.4,0,0,0,0,0,0-.5-.1-.9.2-1.5.5h-.2c0,.1,0,.1,0,.1-.1,0-.3-.1-.3-.2l-1.4-1.6c-.2-.2-.3-.4-.3-.5l.6-1.2c0-.2.6-.2.9-.1,0,0,0,0,0,0h0s3.1.7,3.1.7Z" style="fill: #3fac49;"/>
  <path d="M30,48.2c-.4.4-.8.9-1.2,1.4-1.3,1.8-2,3.9-2,6.3s1.1,5.5,3.2,7.6c2.1,2.1,4.7,3.2,7.7,3.2s4.4-.7,6.2-2c.5-.4.9-.8,1.4-1.2.4-.4.8-.9,1.2-1.3,1.3-1.8,2-3.9,2-6.2s-1.1-5.5-3.2-7.7h0c-2.1-2.1-4.6-3.2-7.6-3.2s-4.5.7-6.3,2c-.5.4-.9.7-1.4,1.2Z" style="fill: #3fac49;"/>
  <path d="M33.4,40.5c-2.7.7-5.1,2.1-7.2,4.2-3.1,3.2-4.7,7-4.7,11.4s1.6,8.3,4.7,11.4c3.1,3.2,6.9,4.8,11.4,4.8s8.2-1.6,11.4-4.8c3.2-3.1,4.7-6.9,4.7-11.4s-.5-5-1.6-7.1h5.4l-3.2,17.6c3.9-.5,6.2-2.2,6.7-5.1.5-2.9,1.8-9.3,3.8-19h-17.2s7.1-7.1,7.1-7.1c.4-.6.6-1.2.6-1.9,0-1.2-.5-2.2-1.5-2.8l-16.2-8.7-6.8,6.9c-1.9,2.4-2.1,5.2-.6,8.4l8.3-7.9,4,2.3c-2.6,2.6-4.6,4.6-5.9,5.9-.7.7-1.7,1.7-3.1,3.1ZM45.2,48.2h0c2.1,2.1,3.2,4.7,3.2,7.7s-.7,4.4-2,6.2c-.4.5-.8.9-1.2,1.3-.4.4-.9.8-1.4,1.2-1.8,1.3-3.9,2-6.2,2s-5.5-1.1-7.7-3.2c-2.1-2.1-3.2-4.6-3.2-7.6s.7-4.5,2-6.3c.4-.5.7-1,1.2-1.4.4-.4.9-.8,1.4-1.2,1.8-1.3,3.9-2,6.3-2s5.4,1,7.6,3.2Z" style="fill: #fff;"/>
  <path d="M50.7,25.6l1.2,1.4,6.5,6.9c1.2-1.1,1.9-2.4,2.3-3.5.4-1.1-.2-.7-1-.2-.8.5-1.5-.3-1.5-.3l-1.4-1.6c-.8-.9-.5-1.5-.5-1.5l.6-1.3c.5-1.1,2.1-.7,2.1-.7l6.9,1.5-2.1-2.6s-1-6-7.2-5.6h0c-6.1.4-5.9,7.6-5.9,7.6Z" style="fill: #fff;"/>
  <path d="M58.8,25.7s0,0,0,0c-.3,0-.9,0-.9.1l-.6,1.2c0,0,0,.2.3.5l1.4,1.6s.2.2.3.2c0,0,0,0,0,0h.2c.6-.4,1-.7,1.5-.6,0,0,0,0,0,0,.1-.3.5-1.1.8-2.4l-3.1-.7h0Z" style="fill: #fff;"/>
</svg>