<?xml version="1.0" encoding="UTF-8"?>
<svg id="Layer_1" xmlns="http://www.w3.org/2000/svg" version="1.1" viewBox="0 0 81 81">
  <!-- Generator: Adobe Illustrator 29.1.0, SVG Export Plug-In . SVG Version: 2.1.0 Build 142)  -->
  <path d="M0,0v81h81V0H0ZM34.4,25l-8.3,7.9c-1.5-3.2-1.2-6,.6-8.4l6.8-6.9,16.2,8.7c1,.6,1.5,1.6,1.5,2.8s-.2,1.4-.6,1.9l-7.1,7.1h17.2v.2c-1.9,9.7-3.2,16.1-3.7,19-.5,2.9-2.7,4.6-6.7,5.1l3.2-17.6h-5.4c.8,1.7,1.3,3.4,1.5,5.2,0,.6,0,1.2,0,1.9h0c0,3.4-.9,6.4-2.7,8.9-.6.9-1.3,1.7-2,2.5-3.2,3.2-7,4.8-11.4,4.8s-8.2-1.6-11.4-4.8c-3.1-3.1-4.7-6.9-4.7-11.4s1.6-8.2,4.7-11.4c2.1-2.1,4.5-3.5,7.2-4.2l3.1-3.1,5.9-5.9-4-2.3ZM57,24.7c-.5-.1-.9.2-1.5.5h-.2c0,0-.3,0-.3-.1l-1.4-1.6c-.2-.2-.3-.4-.3-.5l.6-1.2c0-.2.6-.2.9,0l3.1.7c-.3,1.2-.6,2.1-.8,2.4h0ZM55,20.6s-1.6-.5-2.1.7l-.6,1.3s-.3.6.5,1.5l1.4,1.6s.7.8,1.5.3,1.4-.9,1,.2c-.4,1.1-1.1,2.4-2.3,3.5l-6.5-6.9-1.2-1.4s-.2-7.2,5.9-7.6h0c6.1-.3,7.2,5.7,7.2,5.7l2.1,2.6-6.9-1.5Z" style="fill: #0067a5;"/>
  <path d="M54.8,21.7c.3,0,0,0,0,0h0Z" style="fill: #0067a5;"/>
  <path d="M25.9,44.1c-.4.4-.8.9-1.2,1.4-1.3,1.8-2,3.9-2,6.3s1.1,5.5,3.2,7.6,4.7,3.2,7.7,3.2,4.4-.7,6.2-2c.5-.4.9-.8,1.4-1.2.4-.4.8-.9,1.2-1.3,1.3-1.8,2-3.9,2-6.2s-1.1-5.5-3.2-7.7h0c-2.1-2.2-4.6-3.3-7.6-3.3s-4.5.7-6.3,2c-.5.4-.9.7-1.4,1.2Z" style="fill: #0067a5;"/>
  <path d="M49.7,51.9c0-.7,0-1.3,0-1.9,0,.6,0,1.2,0,1.9h0Z" style="fill: #fff;"/>
  <path d="M29.4,36.3c-2.7.7-5.1,2.1-7.2,4.2-3.1,3.2-4.7,6.9-4.7,11.4s1.6,8.3,4.7,11.4c3.2,3.2,7,4.8,11.4,4.8s8.2-1.6,11.4-4.8,1.5-1.6,2-2.5c1.8-2.6,2.7-5.6,2.7-8.9h0c0-.7,0-1.3,0-1.9-.2-1.8-.7-3.6-1.5-5.2h5.4l-3.2,17.6c4-.5,6.2-2.2,6.7-5.1.5-2.9,1.8-9.3,3.8-19v-.2h-17.3l7.1-7.1c.4-.5.6-.7.6-1.9s-.5-2.2-1.5-2.8l-16.2-8.7-6.8,6.9c-1.8,2.4-2.1,5.2-.6,8.4l8.3-7.9,4,2.3-5.9,5.9-3.1,3.1ZM41.2,44.1h0c2.1,2.3,3.2,5.5,3.2,7.8s-.7,4.4-2,6.2c-.4.4-.8.9-1.2,1.3-.5.4-.9.8-1.4,1.2-1.8,1.3-3.2,2-6.2,2s-5.6-1.1-7.7-3.2-3.2-5.2-3.2-7.6.7-4.5,2-6.3c.4-.5.8-1,1.2-1.4s.9-.8,1.4-1.2c1.8-1.3,3.3-2,6.3-2s5.5,1.1,7.6,3.2Z" style="fill: #fff;"/>
  <path d="M52.6,13.9h0c-6.1.3-5.9,7.5-5.9,7.5l1.2,1.4,6.5,6.9c1.2-1.1,1.9-2.4,2.3-3.5.4-1.1-.2-.7-1-.2s-1.5-.3-1.5-.3l-1.4-1.6c-.8-.9-.5-1.5-.5-1.5l.6-1.3c.5-1.2,2.1-.7,2.1-.7l6.9,1.5-2.1-2.6s-1.1-6-7.2-5.6Z" style="fill: #fff;"/>
  <path d="M54.8,21.7s.3,0,0,0c-.3-.1-.9-.1-.9,0l-.6,1.2c0,0,.1.3.3.5l1.4,1.6c0,.1.2.2.3.2h0c0,0,.2,0,.2,0,.6-.3,1-.6,1.5-.5h0c.2-.2.5-1.1.8-2.3l-3.1-.7Z" style="fill: #fff;"/>
</svg>