<svg id="Cable_Car" enable-background="new 0 0 64 64" height="512" viewBox="0 0 64 64" width="512" xmlns="http://www.w3.org/2000/svg"><path d="m27.36451 27.08114h-12.8c-.32913.0365-1.31652.54855-1.49933.82277-2.88917 4.53493-4.44353 9.76462-4.51663 15.17723 0 .51194.18292.98739.54855 1.35313.36574.36573.85949.58516 1.38973.58516h16.87768c1.0606 0 1.92009-.85949 1.92009-1.92009v-14.09822c0-1.06061-.85949-1.91998-1.92009-1.91998zm-12.43426 13.67768c-.21942 0-.43884-.0731-.60335-.21942-.38404-.32913-.42065-.91429-.09152-1.29833l6.65603-7.5885c.32913-.38404.91429-.42065 1.28002-.09152.38404.32924.42054.91429.09141 1.29833l-6.65603 7.58862c-.18281.21941-.43884.31082-.67656.31082zm9.98404-4.84576-2.92567 3.32801c-.18292.20112-.43895.31094-.69487.31094-.20123 0-.42065-.07322-.60346-.21953-.36574-.32913-.40234-.91428-.0731-1.29821l2.92567-3.32801c.32913-.38404.91429-.42054 1.28002-.0914.38393.32911.42054.91427.09141 1.2982zm2.45022-8.83192h-12.8c-.32913.0365-1.31652.54855-1.49933.82277-2.88917 4.53493-4.44353 9.76462-4.51663 15.17723 0 .51194.18292.98739.54855 1.35313.36574.36573.85949.58516 1.38973.58516h16.87768c1.0606 0 1.92009-.85949 1.92009-1.92009v-14.09822c0-1.06061-.85949-1.91998-1.92009-1.91998zm-12.43426 13.67768c-.21942 0-.43884-.0731-.60335-.21942-.38404-.32913-.42065-.91429-.09152-1.29833l6.65603-7.5885c.32913-.38404.91429-.42065 1.28002-.09152.38404.32924.42054.91429.09141 1.29833l-6.65603 7.58862c-.18281.21941-.43884.31082-.67656.31082zm9.98404-4.84576-2.92567 3.32801c-.18292.20112-.43895.31094-.69487.31094-.20123 0-.42065-.07322-.60346-.21953-.36574-.32913-.40234-.91428-.0731-1.29821l2.92567-3.32801c.32913-.38404.91429-.42054 1.28002-.0914.38393.32911.42054.91427.09141 1.2982zm2.45022-8.83192h-12.8c-.32913.0365-1.31652.54855-1.49933.82277-2.88917 4.53493-4.44353 9.76462-4.51663 15.17723 0 .51194.18292.98739.54855 1.35313.36574.36573.85949.58516 1.38973.58516h16.87768c1.0606 0 1.92009-.85949 1.92009-1.92009v-14.09822c0-1.06061-.85949-1.91998-1.92009-1.91998zm-12.43426 13.67768c-.21942 0-.43884-.0731-.60335-.21942-.38404-.32913-.42065-.91429-.09152-1.29833l6.65603-7.5885c.32913-.38404.91429-.42065 1.28002-.09152.38404.32924.42054.91429.09141 1.29833l-6.65603 7.58862c-.18281.21941-.43884.31082-.67656.31082zm9.98404-4.84576-2.92567 3.32801c-.18292.20112-.43895.31094-.69487.31094-.20123 0-.42065-.07322-.60346-.21953-.36574-.32913-.40234-.91428-.0731-1.29821l2.92567-3.32801c.32913-.38404.91429-.42054 1.28002-.0914.38393.32911.42054.91427.09141 1.2982zm26.07544-7.95424c-.21942-.34743-1.20692-.84118-1.53605-.87768h-12.8c-1.0606 0-1.91998.85938-1.91998 1.91998v14.09822c0 1.0606.85938 1.92009 1.91998 1.92009h16.89598c.53036 0 1.024-.21942 1.38973-.58516.36574-.36574.54855-.84119.54855-1.35313-.0731-5.41261-1.62734-10.6423-4.49821-15.12232zm-10.53259 12.8c-.20111 0-.42054-.0731-.60346-.21942-.36574-.32913-.40223-.91429-.0731-1.29833l6.65603-7.5885c.32913-.38404.89598-.42065 1.27991-.09152.38404.32924.42065.91429.09152 1.29833l-6.65603 7.58862c-.18292.21941-.43884.31082-.69487.31082zm10.00223-4.84576-2.92567 3.32801c-.18282.20112-.43884.31094-.69487.31094-.21942 0-.42054-.07322-.60346-.21953-.38393-.32913-.42054-.91428-.0731-1.29821l2.92567-3.32801c.32924-.38404.89609-.42054 1.28002-.0914.38405.32911.42066.91427.09141 1.2982zm.53036-7.95424c-.21942-.34743-1.20692-.84118-1.53605-.87768h-12.8c-1.0606 0-1.91998.85938-1.91998 1.91998v14.09822c0 1.0606.85938 1.92009 1.91998 1.92009h16.89598c.53036 0 1.024-.21942 1.38973-.58516.36574-.36574.54855-.84119.54855-1.35313-.0731-5.41261-1.62734-10.6423-4.49821-15.12232zm-10.53259 12.8c-.20111 0-.42054-.0731-.60346-.21942-.36574-.32913-.40223-.91429-.0731-1.29833l6.65603-7.5885c.32913-.38404.89598-.42065 1.27991-.09152.38404.32924.42065.91429.09152 1.29833l-6.65603 7.58862c-.18292.21941-.43884.31082-.69487.31082zm10.00223-4.84576-2.92567 3.32801c-.18282.20112-.43884.31094-.69487.31094-.21942 0-.42054-.07322-.60346-.21953-.38393-.32913-.42054-.91428-.0731-1.29821l2.92567-3.32801c.32924-.38404.89609-.42054 1.28002-.0914.38405.32911.42066.91427.09141 1.2982zm-23.09486-8.83192h-12.8c-.32913.0365-1.31652.54855-1.49933.82277-2.88917 4.53493-4.44353 9.76462-4.51663 15.17723 0 .51194.18292.98739.54855 1.35313.36574.36573.85949.58516 1.38973.58516h16.87768c1.0606 0 1.92009-.85949 1.92009-1.92009v-14.09822c0-1.06061-.85949-1.91998-1.92009-1.91998zm-12.43426 13.67768c-.21942 0-.43884-.0731-.60335-.21942-.38404-.32913-.42065-.91429-.09152-1.29833l6.65603-7.5885c.32913-.38404.91429-.42065 1.28002-.09152.38404.32924.42054.91429.09141 1.29833l-6.65603 7.58862c-.18281.21941-.43884.31082-.67656.31082zm9.98404-4.84576-2.92567 3.32801c-.18292.20112-.43895.31094-.69487.31094-.20123 0-.42065-.07322-.60346-.21953-.36574-.32913-.40234-.91428-.0731-1.29821l2.92567-3.32801c.32913-.38404.91429-.42054 1.28002-.0914.38393.32911.42054.91427.09141 1.2982zm30.28113-10.84342c-1.07891-1.66395-3.60234-2.94397-5.3577-2.94397h-35.63884c-1.77377 0-4.27891 1.28002-5.376 2.94397-6.98516 10.97143-6.98516 25.03315 0 35.98627 1.0971 1.68237 3.60223 2.94409 5.376 2.94409h35.63884c1.75536 0 4.27879-1.26172 5.3577-2.94408 7.00346-10.95313 7.00346-25.01485 0-35.98628zm-24.08225 18.02969c0 2.0663-1.68237 3.74866-3.74866 3.74866h-16.87768c-1.024 0-1.97489-.40234-2.68795-1.13371-.71317-.71317-1.09721-1.66406-1.07891-2.66975.0731-5.74174 1.73716-11.31886 4.79085-16.10971.54855-.85949 2.19431-1.68225 3.05368-1.68225h12.8c2.06629 0 3.74866 1.68225 3.74866 3.74855v14.09821zm22.43649 3.74866h-16.89598c-2.0663 0-3.74855-1.68237-3.74855-3.74866v-14.09821c0-2.06629 1.68225-3.74855 3.74855-3.74855h12.8183c.84119 0 2.48683.82277 3.05368 1.70056 3.07199 4.79085 4.71775 10.34967 4.79085 16.09141.0183 1.00569-.36562 1.95658-1.07879 2.66975-.71316.73136-1.66406 1.1337-2.68806 1.1337zm-4.09598-19.76685h-12.8c-1.0606 0-1.91998.85938-1.91998 1.91998v14.09822c0 1.0606.85938 1.92009 1.91998 1.92009h16.89598c.53036 0 1.024-.21942 1.38973-.58516.36574-.36574.54855-.84119.54855-1.35313-.0731-5.41261-1.62734-10.6423-4.49821-15.12232-.21942-.34744-1.20692-.84119-1.53605-.87768zm-8.99654 13.67768c-.20111 0-.42054-.0731-.60346-.21942-.36574-.32913-.40223-.91429-.0731-1.29833l6.65603-7.5885c.32913-.38404.89598-.42065 1.27991-.09152.38404.32924.42065.91429.09152 1.29833l-6.65603 7.58862c-.18292.21941-.43884.31082-.69487.31082zm10.00223-4.84576-2.92567 3.32801c-.18282.20112-.43884.31094-.69487.31094-.21942 0-.42054-.07322-.60346-.21953-.38393-.32913-.42054-.91428-.0731-1.29821l2.92567-3.32801c.32924-.38404.89609-.42054 1.28002-.0914.38405.32911.42066.91427.09141 1.2982zm-23.09486-8.83192h-12.8c-.32913.0365-1.31652.54855-1.49933.82277-2.88917 4.53493-4.44353 9.76462-4.51663 15.17723 0 .51194.18292.98739.54855 1.35313.36574.36573.85949.58516 1.38973.58516h16.87768c1.0606 0 1.92009-.85949 1.92009-1.92009v-14.09822c0-1.06061-.85949-1.91998-1.92009-1.91998zm-12.43426 13.67768c-.21942 0-.43884-.0731-.60335-.21942-.38404-.32913-.42065-.91429-.09152-1.29833l6.65603-7.5885c.32913-.38404.91429-.42065 1.28002-.09152.38404.32924.42054.91429.09141 1.29833l-6.65603 7.58862c-.18281.21941-.43884.31082-.67656.31082zm9.98404-4.84576-2.92567 3.32801c-.18292.20112-.43895.31094-.69487.31094-.20123 0-.42065-.07322-.60346-.21953-.36574-.32913-.40234-.91428-.0731-1.29821l2.92567-3.32801c.32913-.38404.91429-.42054 1.28002-.0914.38393.32911.42054.91427.09141 1.2982zm2.45022-8.83192h-12.8c-.32913.0365-1.31652.54855-1.49933.82277-2.88917 4.53493-4.44353 9.76462-4.51663 15.17723 0 .51194.18292.98739.54855 1.35313.36574.36573.85949.58516 1.38973.58516h16.87768c1.0606 0 1.92009-.85949 1.92009-1.92009v-14.09822c0-1.06061-.85949-1.91998-1.92009-1.91998zm-12.43426 13.67768c-.21942 0-.43884-.0731-.60335-.21942-.38404-.32913-.42065-.91429-.09152-1.29833l6.65603-7.5885c.32913-.38404.91429-.42065 1.28002-.09152.38404.32924.42054.91429.09141 1.29833l-6.65603 7.58862c-.18281.21941-.43884.31082-.67656.31082zm9.98404-4.84576-2.92567 3.32801c-.18292.20112-.43895.31094-.69487.31094-.20123 0-.42065-.07322-.60346-.21953-.36574-.32913-.40234-.91428-.0731-1.29821l2.92567-3.32801c.32913-.38404.91429-.42054 1.28002-.0914.38393.32911.42054.91427.09141 1.2982zm26.07544-7.95424c-.21942-.34743-1.20692-.84118-1.53605-.87768h-12.8c-1.0606 0-1.91998.85938-1.91998 1.91998v14.09822c0 1.0606.85938 1.92009 1.91998 1.92009h16.89598c.53036 0 1.024-.21942 1.38973-.58516.36574-.36574.54855-.84119.54855-1.35313-.0731-5.41261-1.62734-10.6423-4.49821-15.12232zm-10.53259 12.8c-.20111 0-.42054-.0731-.60346-.21942-.36574-.32913-.40223-.91429-.0731-1.29833l6.65603-7.5885c.32913-.38404.89598-.42065 1.27991-.09152.38404.32924.42065.91429.09152 1.29833l-6.65603 7.58862c-.18292.21941-.43884.31082-.69487.31082zm10.00223-4.84576-2.92567 3.32801c-.18282.20112-.43884.31094-.69487.31094-.21942 0-.42054-.07322-.60346-.21953-.38393-.32913-.42054-.91428-.0731-1.29821l2.92567-3.32801c.32924-.38404.89609-.42054 1.28002-.0914.38405.32911.42066.91427.09141 1.2982zm.53036-7.95424c-.21942-.34743-1.20692-.84118-1.53605-.87768h-12.8c-1.0606 0-1.91998.85938-1.91998 1.91998v14.09822c0 1.0606.85938 1.92009 1.91998 1.92009h16.89598c.53036 0 1.024-.21942 1.38973-.58516.36574-.36574.54855-.84119.54855-1.35313-.0731-5.41261-1.62734-10.6423-4.49821-15.12232zm-10.53259 12.8c-.20111 0-.42054-.0731-.60346-.21942-.36574-.32913-.40223-.91429-.0731-1.29833l6.65603-7.5885c.32913-.38404.89598-.42065 1.27991-.09152.38404.32924.42065.91429.09152 1.29833l-6.65603 7.58862c-.18292.21941-.43884.31082-.69487.31082zm10.00223-4.84576-2.92567 3.32801c-.18282.20112-.43884.31094-.69487.31094-.21942 0-.42054-.07322-.60346-.21953-.38393-.32913-.42054-.91428-.0731-1.29821l2.92567-3.32801c.32924-.38404.89609-.42054 1.28002-.0914.38405.32911.42066.91427.09141 1.2982zm-23.09486-8.83192h-12.8c-.32913.0365-1.31652.54855-1.49933.82277-2.88917 4.53493-4.44353 9.76462-4.51663 15.17723 0 .51194.18292.98739.54855 1.35313.36574.36573.85949.58516 1.38973.58516h16.87768c1.0606 0 1.92009-.85949 1.92009-1.92009v-14.09822c0-1.06061-.85949-1.91998-1.92009-1.91998zm-12.43426 13.67768c-.21942 0-.43884-.0731-.60335-.21942-.38404-.32913-.42065-.91429-.09152-1.29833l6.65603-7.5885c.32913-.38404.91429-.42065 1.28002-.09152.38404.32924.42054.91429.09141 1.29833l-6.65603 7.58862c-.18281.21941-.43884.31082-.67656.31082zm9.98404-4.84576-2.92567 3.32801c-.18292.20112-.43895.31094-.69487.31094-.20123 0-.42065-.07322-.60346-.21953-.36574-.32913-.40234-.91428-.0731-1.29821l2.92567-3.32801c.32913-.38404.91429-.42054 1.28002-.0914.38393.32911.42054.91427.09141 1.2982zm.82288-27.31886c0 1.17031.31083 2.26752.87768 3.2l-23.82623 5.39431v-3.96797l22.98504-5.19319c-.03649.18292-.03649.36573-.03649.56685zm35.47421-8.5942v3.94967l-22.94854 5.19319c.03661-.18292.03661-.36574.03661-.54866 0-1.1702-.32913-2.26741-.89598-3.2zm-24.19196 17.38962h-4.09598v-4.44341c2.02969-.42054 3.54743-2.2125 3.54743-4.35201 0-2.45022-1.99319-4.44342-4.46172-4.44342-2.45033 0-4.44341 1.99319-4.44341 4.44342 0 2.13951 1.51763 3.93147 3.52913 4.35201v4.44341h-4.09598c-1.71886 0-3.16351 1.24353-3.45603 2.90748h16.9509c-.29265-1.66395-1.73718-2.90748-3.47434-2.90748zm-5.01027-7.88114c-.49375 0-.91429-.40223-.91429-.91429 0-.49364.42054-.91429.91429-.91429.51194 0 .91429.42065.91429.91429 0 .51206-.40234.91429-.91429.91429z"/></svg>