<?xml version="1.0" encoding="UTF-8"?>
<svg id="Layer_1" xmlns="http://www.w3.org/2000/svg" version="1.1" viewBox="0 0 164.9 175.2">
  <!-- Generator: Adobe Illustrator 29.1.0, SVG Export Plug-In . SVG Version: 2.1.0 Build 142)  -->
  <defs>
    <style>
      .st0, .st1 {
        fill: none;
      }

      .st1 {
        stroke: #860207;
        stroke-linecap: round;
        stroke-linejoin: round;
      }

      .st2 {
        fill: #860207;
      }

      .st3 {
        fill: #f2f2f2;
      }
    </style>
  </defs>
  <path class="st0" d="M58.6,77.3c-.9.9-1.7,1.9-2.4,2.8l-3.2-2.5h0c0,0,3.2,2.6,3.2,2.6.8-1.1,1.6-2,2.4-2.9h0Z"/>
  <path class="st0" d="M51.6,33.6c2.2-3.2,4.4-7.1,4.4-11h0c0,3.9-2.3,7.9-4.4,11.1-2,3.1-4,5.4-4.2,5.7,0,0,0,0,0,0,0,0,2.1-2.4,4.2-5.7Z"/>
  <path class="st0" d="M51.4,91.2c-.9-1.5-1.4-2.7-1.5-4.5,0,1.9.6,3,1.5,4.5Z"/>
  <path class="st0" d="M53.8,85.9c.3,1.1.3,2.3,1,3.2l-3.4,2.1h0l3.4-2.1c-.7-1-.8-2.1-1-3.2h0Z"/>
  <path class="st0" d="M62.6,94.9s0,0,0,0c0,0,0,0,0,0Z"/>
  <path class="st0" d="M53,77.6c.9-1.1,1.7-2.3,2.8-3.3-1.1.9-1.9,2.2-2.8,3.3Z"/>
  <path class="st0" d="M60.2,93.7s0,0,0,0l-2,3.5h.1l2-3.5Z"/>
  <polygon class="st0" points="70.9 97.5 70.8 97.5 70.1 101.5 74.1 102.2 70.2 101.4 70.9 97.5"/>
  <polygon class="st0" points="74.1 102.3 74.2 101.5 74.1 102.2 74.1 102.3"/>
  <path class="st0" d="M67.7,69.9s0,0,0,0l-2.1-3.5c-1.2.7-2.3,1.6-3.4,2.5v.2c1.1-.9,2.2-1.8,3.5-2.5l2,3.3Z"/>
  <path class="st0" d="M51.9,22.8c0,2.1-1.7,5.9-3.7,8.8-1.3,1.8-1.7,2.3-2.4,3.2-.8-1-1.3-1.4-2.4-3.2-1.9-2.9-3.7-6.7-3.7-8.8,0,0,0,0,0,0,0,2,1.7,5.8,3.7,8.8,1.2,1.8,1.7,2.3,2.4,3.2.8-1,1.2-1.4,2.4-3.2,1.9-2.9,3.7-5.4,3.7-8.8s0,0,0,0Z"/>
  <path class="st0" d="M70.7,41.1l1.7-3.7s0,0,0,0l-1.7,3.6c-1.2-.5-2.3-.9-3.6-1.2h0c1.2.4,2.4.8,3.6,1.3Z"/>
  <path class="st0" d="M72.4,37.4c-1.3-.7-2.7-.9-4.1-1.4,1.4.5,2.8.8,4.1,1.4h0Z"/>
  <polygon class="st0" points="55.5 37 59.5 37.9 55.5 36.9 55.5 37"/>
  <path class="st0" d="M45,23.2h0s-1.8,1.7-1.8,1.7c-.2.2-.2.4-.2.5,0-.2,0-.3.2-.5l1.8-1.8Z"/>
  <path class="st0" d="M44.2,20.4l1.8,1.8,1.8-1.8c.3-.3.7-.3,1,0s.2.3.2.4c0-.2,0-.4-.2-.5-.3-.3-.7-.3-1,0l-1.8,1.8-1.8-1.8c-.3-.3-.7-.3-1,0-.2.2-.2.4-.2.5,0-.2,0-.3.2-.4.3-.3.7-.3,1,0Z"/>
  <path class="st0" d="M45.9,12.4c5.6,0,10.1,4.6,10.1,10.1,0,0,0,0,0,0,0-5.6-4.5-10.2-10.1-10.2s-10.2,4.6-10.2,10.2,0,0,0,0c0-5.6,4.6-10.1,10.2-10.1Z"/>
  <polygon class="st0" points="72.6 62.2 72.6 62.2 74.8 65.6 78.2 63.4 78.1 63.3 74.8 65.5 72.6 62.2"/>
  <path class="st0" d="M48.8,25c.1.1.2.3.2.5,0-.2,0-.4-.2-.5l-1.8-1.8h0s1.8,1.8,1.8,1.8Z"/>
  <path class="st0" d="M111.1,91.7l1.3,1.5h0c0-.1-1.3-1.6-1.3-1.6-.3-.3-.7-.3-1-.1,0,0,0,0,0,0,.3-.2.8-.2,1,.1Z"/>
  <path class="st0" d="M106.7,92.5c0,0,0,.2,0,.3,0-.1,0-.2,0-.3,0,0,0,0,0,0Z"/>
  <path class="st0" d="M115.9,90c.3.3.3.7,0,1l-3.1,3.7s0,0,0,0l3.2-3.8h.1c.2-.3.2-.8-.1-1-.2-.3-.7-.3-.9,0h0c.3,0,.5,0,.7,0Z"/>
  <polygon class="st0" points="94.7 103.8 94.8 99.8 98.8 99.8 98.8 99.7 94.7 99.7 94.7 103.8"/>
  <path class="st0" d="M118.9,92.5s0,0,0,0c0,2.1-1.7,5.8-3.7,8.8-1.3,1.8-1.7,2.2-2.4,3.2-.8-.9-1.3-1.4-2.4-3.2-.4-.6-.7-1.1-1.1-1.7.3.6.7,1.2,1.1,1.8,1.2,1.8,1.7,2.3,2.4,3.2.8-1,1.2-1.4,2.4-3.2,1.9-2.9,3.7-5.4,3.7-8.8Z"/>
  <path class="st0" d="M82.9,99.1h0c1.3.2,2.5.3,3.8.3l-.2,4h0l.2-4.1c-1.3.1-2.6,0-3.9-.2Z"/>
  <path class="st0" d="M112.9,82.3s0,0-.1,0c5.6,0,10,4.6,10,10.2s-2.3,7.9-4.4,11.1c-2.1,3.3-4.2,5.7-4.2,5.7-.4.4-.9.7-1.5.7.6,0,1.1-.2,1.5-.7,0,0,2.1-2.4,4.2-5.7h0c2.2-3.2,4.4-7.2,4.4-11.1,0-5.6-4.5-10.2-10.1-10.2Z"/>
  <path class="st0" d="M86.4,53.9c-.1.4-.3.8-.4,1.2.2-.4.3-.8.4-1.2Z"/>
  <path class="st0" d="M81.2,54.9h0c.5-.7.9-1.3,1.2-2.1-.3.7-.7,1.3-1.2,2.1Z"/>
  <path class="st0" d="M80,41.1s0,0,0,0l-2.2,3.4c1.1.6,2,1.4,2.9,2.3h0c-.9-.9-1.8-1.7-2.8-2.3l2.2-3.4Z"/>
  <path class="st0" d="M82.6,51.9c0,.2,0,.3,0,.5,0-.1,0-.2,0-.4h0Z"/>
  <line class="st1" x1="164.1" y1="0" x2="164.1" y2="0"/>
  <path class="st2" d="M164.1,0H.8C.3,0,0,.4,0,.8v173.9c0,.5.3.6.6.2l61.6-61.6c.3-.3.9-.3,1.2,0l29,29c.3.3.9.3,1.2,0l46.6-46.6c.3-.3.9-.3,1.2,0l22.9,22.9c.3.3.6.2.6-.2V.8C164.9.3,164.5,0,164.1,0ZM67.1,39.8l1.2-3.8c1.4.5,2.8.7,4.1,1.4h0c0,0,0,0,0,0l-1.7,3.7c-1.2-.5-2.4-.9-3.6-1.2h0c0,0,0,0,0-.1ZM60.4,33.9l-.9,4-4-.9h0c0,0,0,0,0,0l.9-3.9,4,.9ZM47.3,39.4c-.8.9-2.2.9-3,0,0,0-2.1-2.5-4.2-5.7-2.1-3.2-4.4-5.5-4.4-11.1s0,0,0,0c0,0,0,0,0,0,0-5.6,4.6-10.2,10.2-10.2s10.2,4.6,10.1,10.2c0,0,0,0,0,0,0,0,0,0,0,0h0c0,3.9-2.2,7.8-4.4,11-2.1,3.3-4.2,5.7-4.2,5.7,0,0,0,0,0,0,0,0,0,0,0,0ZM51.5,91.2h0c-.9-1.5-1.4-2.6-1.5-4.5h-.1l4-.8s0,0,0,0h0c.2,1.1.3,2.2,1,3.2l-3.4,2.1ZM53,77.7h0c.9-1.2,1.7-2.5,2.8-3.4h0c0,0,2.8,2.9,2.8,2.9,0,0,0,0,0,0h0c-.8.9-1.6,1.8-2.4,2.9l-3.2-2.5ZM62.1,99c-1.4-.5-2.8-1-4-1.8l2-3.5s0,0,0,0h0c.8.4,1.6.8,2.4,1.1,0,0,0,0,0,0,.3.1.6.2.9.3l-1.5,3.8ZM64.6,72.3l-2.4-3.3h0c0,0,0,0,0,0v-.2c1-.9,2.1-1.8,3.3-2.5l2.1,3.5s0,0,0,0v.2c-1,.7-2.1,1.3-3.1,2.2ZM74.1,102.3h0c0,0-4-.8-4-.8l.7-4h0s0,0,0,0l4,.8-.7,3.3v.8ZM78.2,63.4l-3.4,2.2-2.2-3.4h0s0-.1,0-.1l3.4-2.3,2.3,3.4h0c0,0,0,.2,0,.2ZM80.6,46.8c-.9-.9-1.8-1.7-2.9-2.3l2.2-3.4s0,0,0,0h0c1.3.8,2.5,1.6,3.5,2.8l-2.8,2.9s0,0,0,0h0ZM81.2,54.9c.5-.7.9-1.3,1.2-2.1,0-.1,0-.3.1-.4,0-.2,0-.3,0-.5h0c0,0,4,1.2,4,1.2h0c0,.4-.2.6-.2.8-.1.4-.3.8-.4,1.2-.3.8-.7,1.5-1.4,2.3l-3.3-2.4s0,0,0,0h0ZM86.6,103.4h-.1c-1.3,0-2.7,0-4.1-.2h-.1l.5-4s0,0,0,0h0c1.3,0,2.6.2,3.9,0l-.2,4.1ZM98.8,99.8v4h-4.1v-4.1h4.1ZM118.6,103.6h0c-2.1,3.3-4.2,5.7-4.2,5.7-.4.5-1,.7-1.5.7-.6,0-1.1-.2-1.5-.7,0,0-2.1-2.5-4.2-5.7-2.1-3.2-4.4-5.5-4.4-11.1s4.6-10.2,10.1-10.2c0,0,0,0,0,0h0s0,0,0,0c0,0,0,0,0,0,0,0,0,0,.1,0,5.6,0,10.2,4.6,10.1,10.2,0,3.9-2.2,7.9-4.4,11.1Z"/>
  <path class="st2" d="M45.8,34.8c.7-.9,1.1-1.4,2.4-3.2,2-2.9,3.7-6.7,3.7-8.8,0-3.4-2.7-6-6.1-6s-6.1,2.7-6.1,6c0,2.1,1.8,5.9,3.7,8.8,1.1,1.8,1.6,2.2,2.4,3.2ZM43,25.4c0-.2,0-.4.2-.5l1.8-1.8-1.8-1.8c-.2-.2-.2-.4-.2-.6,0-.2,0-.4.2-.5.3-.3.7-.3,1,0l1.8,1.8,1.8-1.8c.3-.3.7-.3,1,0,.2.2.2.4.2.5,0,.2,0,.4-.2.6l-1.8,1.8,1.8,1.8c.2.2.2.4.2.5,0,.2,0,.4-.2.5-.3.3-.7.3-1,0l-1.8-1.8-1.8,1.8c-.3.3-.7.3-1,0s-.2-.4-.2-.5Z"/>
  <path class="st2" d="M112.8,104.4c.7-1,1.1-1.4,2.4-3.2,2-3,3.7-6.7,3.7-8.8,0-3.4-2.7-6-6.1-6s-6.1,2.7-6.1,6c0,.1,0,.2,0,.3.1,1.6,1.2,4.3,2.6,6.8.4.6.7,1.1,1.1,1.7,1.1,1.8,1.6,2.3,2.4,3.2ZM110.1,91.6s0,0,0,0c0,0,0,0,0,0,.3-.2.7-.2,1,.1l1.3,1.5,2.6-3.1h0c0,0,.1,0,.2,0h0c.2-.3.7-.3.9,0,.3.2.3.7.1,1h-.1l-3.2,3.8s0,0,0,0h0c0,.2-.3.3-.5.3s-.4,0-.5-.2l-1.8-2.2c-.2-.3-.2-.8,0-1Z"/>
  <path class="st3" d="M83.5,43.9c-1-1.2-2.2-2-3.5-2.8h0s-2.2,3.4-2.2,3.4c1.1.6,2,1.4,2.8,2.2,0,0,0,0,0,0l2.8-2.9Z"/>
  <polygon class="st3" points="75.9 59.8 72.5 62.1 72.6 62.2 74.8 65.5 78.1 63.3 78.2 63.2 75.9 59.8"/>
  <path class="st3" d="M84.5,57.4c.7-.8,1.1-1.5,1.4-2.3.1-.4.3-.8.4-1.2,0-.2.2-.5.2-.7h0c0,0-4-1.2-4-1.2,0,.1,0,.3,0,.4,0,.2,0,.3-.1.4-.2.8-.6,1.4-1.2,2.1,0,0,0,0,0,0l3.3,2.4Z"/>
  <path class="st3" d="M72.4,37.4c-1.3-.6-2.7-.9-4.1-1.4l-1.2,3.8s0,0,0,0c1.3.3,2.4.7,3.6,1.2l1.7-3.6Z"/>
  <path class="st3" d="M72.4,37.4h0c0-.1,0,0,0,0h0s0,0,0,0Z"/>
  <polygon class="st3" points="70.9 97.4 70.9 97.5 70.2 101.4 74.1 102.2 74.2 101.5 74.9 98.2 70.9 97.4"/>
  <path class="st3" d="M82.9,99.2s0,0,0,0l-.5,4h.1c1.4.2,2.8.2,4.1.3h0c0,0,.2-4.1.2-4.1-1.3,0-2.5,0-3.8-.2Z"/>
  <path class="st3" d="M118.4,103.6c2.1-3.2,4.4-7.2,4.4-11.1,0-5.6-4.4-10.1-10-10.2,0,0,0,0,0,0-5.6,0-10.1,4.6-10.1,10.2s2.3,7.9,4.4,11.1c2.1,3.2,4.2,5.7,4.2,5.7.4.5,1,.7,1.5.7.5,0,1.1-.2,1.5-.7,0,0,2.1-2.4,4.2-5.7ZM110.4,101.3c-.4-.6-.7-1.2-1.1-1.8-1.4-2.5-2.5-5.1-2.6-6.8,0,0,0-.2,0-.3s0,0,0,0c0-3.4,2.7-6,6.1-6s6.1,2.7,6.1,6c0,0,0,0,0,0,0,3.4-1.8,5.9-3.7,8.8-1.2,1.8-1.6,2.2-2.4,3.2-.7-.9-1.2-1.4-2.4-3.2Z"/>
  <path class="st3" d="M112.7,82.3s0,0,0,0c0,0,0,0,0,0h0Z"/>
  <polygon class="st3" points="94.7 103.8 98.8 103.8 98.8 99.8 94.8 99.8 94.7 103.8"/>
  <path class="st3" d="M65.7,66.6c-1.3.7-2.4,1.6-3.4,2.5,0,0,0,0,0,0h0c0-.1,2.4,3.2,2.4,3.2,1-.9,2.1-1.5,3.2-2.2v-.2c-.1,0-2.1-3.3-2.1-3.3Z"/>
  <polygon class="st3" points="55.5 36.9 59.5 37.9 60.4 33.9 56.4 33 55.5 36.9 55.5 36.9"/>
  <path class="st3" d="M55.9,22.6h0s0,0,0,0c0-5.6-4.5-10.1-10.1-10.1s-10.2,4.6-10.2,10.1c0,0,0,0,0,0,0,5.6,2.3,7.9,4.4,11.1,2.1,3.2,4.2,5.7,4.2,5.7.8.9,2.2.9,3,0,0,0,0,0,0,0,.2-.2,2.2-2.5,4.2-5.7,2.1-3.2,4.4-7.2,4.4-11.1ZM45.8,34.9c-.7-.9-1.2-1.4-2.4-3.2-2-3-3.7-6.8-3.7-8.8s0,0,0,0c0-3.4,2.7-6,6.1-6s6.1,2.7,6.1,6c0,0,0,0,0,0,0,3.4-1.8,5.9-3.7,8.8-1.2,1.8-1.6,2.2-2.4,3.2Z"/>
  <path class="st3" d="M53.8,85.9s0,0,0,0l-4,.8h.1c0,1.8.6,3,1.5,4.5l3.4-2.1c-.7-.9-.7-2.1-1-3.2Z"/>
  <path class="st3" d="M58.6,77.3s0,0,0,0l-2.8-3h0c-1.1,1.1-1.9,2.3-2.8,3.4l3.2,2.5c.7-1,1.5-2,2.4-2.8Z"/>
  <path class="st3" d="M62.6,94.9c-.9-.3-1.6-.7-2.4-1.2h0s-2,3.5-2,3.5h-.1c1.2.8,2.6,1.3,4,1.8l1.5-3.8c-.3,0-.6-.2-.9-.3,0,0,0,0,0,0Z"/>
  <path class="st3" d="M112.3,95c.2,0,.4,0,.5-.2h0c0,0,3.1-3.8,3.1-3.8.2-.3.2-.7,0-1s-.4-.2-.7,0c0,0-.1,0-.2,0h0l-2.6,3.1h0c0,.1-1.3-1.4-1.3-1.4-.2-.3-.7-.3-1-.1,0,0,0,0,0,0-.3.2-.3.7,0,1l1.8,2.2c.1.2.3.2.5.2Z"/>
  <path class="st3" d="M44.2,26l1.8-1.8,1.8,1.8c.3.3.7.3,1,0s.2-.4.2-.5c0-.2,0-.3-.2-.5l-1.8-1.8h0s1.8-1.8,1.8-1.8c.2-.2.2-.4.2-.6,0-.2,0-.3-.2-.4-.3-.3-.7-.3-1,0l-1.8,1.8-1.8-1.8c-.3-.3-.7-.3-1,0s-.2.3-.2.4c0,.2,0,.4.2.6l1.8,1.8h0s-1.8,1.8-1.8,1.8c-.1.1-.2.3-.2.5,0,.2,0,.4.2.5.3.3.7.3,1,0Z"/>
</svg>