<?xml version="1.0" encoding="UTF-8"?>
<svg id="Layer_1" xmlns="http://www.w3.org/2000/svg" version="1.1" viewBox="0 0 150 181.5">
  <!-- Generator: Adobe Illustrator 29.1.0, SVG Export Plug-In . SVG Version: 2.1.0 Build 142)  -->
  <defs>
    <style>
      .st0 {
        fill: #fff;
      }

      .st1 {
        fill: #006be0;
      }
    </style>
  </defs>
  <path class="st1" d="M75,0C33.6,0,0,33.6,0,75s75,106.5,75,106.5c0,0,75-49.6,75-106.5S116.4,0,75,0ZM52.2,98.9c0,2.5-2,4.6-4.6,4.6h-13.2c-2.5,0-4.6-2-4.6-4.6v-35c0-2.5,2-4.6,4.6-4.6h13.2c2.5,0,4.6,2,4.6,4.6v35ZM114.1,69.6c2.7.8,4.7,3.1,4.7,6s-2.8,6.2-6.2,6.2,0,.2,0,.2c2.7.8,4.7,3.1,4.7,6s-2.8,6.2-6.2,6.2,0,.2,0,.2c2.7.8,4.7,3.1,4.7,6s-2.8,6.2-6.2,6.2h-32.4,0c-11.6,0-19.8-6-19.9-8.4v-34.7c0-1.4.9-2.8,2.1-3.5,10.3-6.4,19-23.3,21.2-28.9,2.4-5.9,14.2-3.6,12.7,4-.6,3.1-3.8,13.1-5.6,18.6-.6,1.7.8,3.6,2.7,3.6,3.5,0,8.7,0,11.2,0,4.2,0,9.1,0,12.6,0s6.2,2.8,6.2,6.2-2.8,6.2-6.2,6.2,0,.2,0,.2Z"/>
  <path class="st0" d="M114.1,69.4c3.4,0,6.2-2.8,6.2-6.2s-2.8-6.2-6.2-6.2-8.4,0-12.6,0c-2.6,0-7.7,0-11.2,0-1.9,0-3.2-1.9-2.7-3.6,1.8-5.4,5-15.4,5.6-18.6,1.4-7.6-10.4-9.9-12.7-4-2.2,5.6-10.9,22.6-21.2,28.9-1.2.8-2,2.1-2,3.5v34.7c0,2.4,8.2,8.4,19.8,8.4h0s32.4,0,32.4,0c3.4,0,6.2-2.8,6.2-6.2s-2-5.2-4.7-6c0,0,0-.2,0-.2,3.4,0,6.2-2.8,6.2-6.2s-2-5.2-4.7-6c0,0,0-.2,0-.2,3.4,0,6.2-2.8,6.2-6.2s-2-5.2-4.7-6c0,0,0-.2,0-.2Z"/>
  <path class="st0" d="M47.6,59.3h-13.2c-2.6,0-4.6,2.1-4.6,4.6v35c0,2.6,2.1,4.6,4.6,4.6h13.2c2.6,0,4.6-2.1,4.6-4.6v-35c0-2.6-2.1-4.6-4.6-4.6Z"/>
</svg>