<?xml version="1.0" encoding="UTF-8"?>
<svg id="Layer_1" xmlns="http://www.w3.org/2000/svg" version="1.1" viewBox="0 0 139.8 146.3">
  <!-- Generator: Adobe Illustrator 29.1.0, SVG Export Plug-In . SVG Version: 2.1.0 Build 142)  -->
  <path d="M138.7,13.1c0-6.6-5.4-12-12-12H1.8c-.4,0-.7.3-.7.7v113.4c0,.4.2.9.5,1.2l28.2,28.2c.3.3.8.5,1.2.5h106.9c.4,0,.7-.3.7-.7V13.2s0,0,0-.1Z" style="fill: #3f8983;"/>
  <g>
    <path d="M44.6,44.6l-1.4,6.7h-4.3l8.2-31.3h3.4l8.1,31.3h-4.3l-1.4-6.7h-8.1ZM48.6,25.8l-3.3,15.6h6.6l-3.3-15.6Z" style="fill: #e4f3ef;"/>
    <path d="M76.3,42.4c0,2.8-.3,4.3-1.1,5.7-1.3,2.5-3.6,3.8-6.7,3.8s-5-1.1-6.2-3c-.9-1.4-1.3-3.6-1.3-7v-12.1c0-3.7.5-6,1.7-7.4,1.3-1.7,3.3-2.5,5.9-2.5s5.5,1.3,6.7,3.9c.6,1.2.8,2.6.8,5h-3.7c-.2-4.1-1.1-5.6-3.7-5.6s-3.6,1.8-3.6,6.9v11.6c0,5.1,1,7,3.7,7s3.9-1.8,3.9-6.2h3.7Z" style="fill: #e4f3ef;"/>
    <path d="M84.6,23.4h-5.4v-3.3h14.9v3.3h-5.4v28h-4v-28Z" style="fill: #e4f3ef;"/>
  </g>
  <g>
    <path d="M63.2,66.6c0-6.7,2.4-9.6,8-9.6s8.1,2.9,8.1,9.6v12.9c0,6.7-2.4,9.6-8.1,9.6s-8-2.9-8-9.6v-12.9ZM75.3,66.9c0-4.9-1.1-6.7-4-6.7s-4,1.9-4,6.7v12.1c0,4.9,1.1,6.8,4,6.8s4-1.9,4-6.8v-12.1Z" style="fill: #e4f3ef; opacity: .7;"/>
    <path d="M84.6,57.4h4l8.5,23v-23h3.8v31.3h-3.9l-8.7-23.1v23.1h-3.8v-31.3Z" style="fill: #e4f3ef; opacity: .7;"/>
    <path d="M54.4,57.3h4v31.1h-4v-31.1Z" style="fill: #e4f3ef; opacity: .7;"/>
  </g>
  <g>
    <path d="M58.5,126.5h-6.9v-6.1h6.9v6.1ZM58.5,115.6h-6.9v-21h6.9v21Z" style="fill: #e4f3ef;"/>
    <path d="M73,100.2h-8.5v-5.6h23.8v5.6h-8.5v26.4h-6.9v-26.4Z" style="fill: #e4f3ef;"/>
  </g>
  <g>
    <path d="M128.5,9.9c-.6-.3-1.2-.5-1.8-.5v-1.1c.8,0,1.7.2,2.4.6l-.5,1Z" style="fill: #e4f3ef;"/>
    <path d="M131.5,129.7h-1.1v-4.5h1.1v4.5ZM131.5,119.6h-1.1v-4.5h1.1v4.5ZM131.5,109.5h-1.1v-4.5h1.1v4.5ZM131.5,99.4h-1.1v-4.5h1.1v4.5ZM131.5,89.3h-1.1v-4.5h1.1v4.5ZM131.5,79.2h-1.1v-4.5h1.1v4.5ZM131.5,69.1h-1.1v-4.5h1.1v4.5ZM131.5,59.1h-1.1v-4.5h1.1v4.5ZM131.5,49h-1.1v-4.5h1.1v4.5ZM131.5,38.9h-1.1v-4.5h1.1v4.5ZM131.5,28.8h-1.1v-4.5h1.1v4.5ZM131.5,18.7h-1.1v-4.5h1.1v4.5Z" style="fill: #e4f3ef;"/>
    <polygon points="131.5 138 128.8 138 128.8 136.9 130.4 136.9 130.4 135.3 131.5 135.3 131.5 138" style="fill: #e4f3ef;"/>
    <path d="M123.1,138h-4.5v-1.1h4.5v1.1ZM112.9,138h-4.5v-1.1h4.5v1.1ZM102.7,138h-4.5v-1.1h4.5v1.1ZM92.5,138h-4.5v-1.1h4.5v1.1ZM82.3,138h-4.5v-1.1h4.5v1.1ZM72.1,138h-4.5v-1.1h4.5v1.1ZM61.9,138h-4.5v-1.1h4.5v1.1ZM51.7,138h-4.5v-1.1h4.5v1.1ZM41.5,138h-4.5v-1.1h4.5v1.1ZM31.6,136.3l-3.2-3.2.8-.8,3.2,3.2-.8.8ZM24.4,129.1l-3.2-3.2.8-.8,3.2,3.2-.8.8ZM17.2,121.9l-3.2-3.2.8-.8,3.2,3.2-.8.8Z" style="fill: #e4f3ef;"/>
    <polygon points="10 114.7 8.2 113 8.2 110.5 9.3 110.5 9.3 112.5 10.7 113.9 10 114.7" style="fill: #e4f3ef;"/>
    <path d="M9.3,105.3h-1.1v-4.2h1.1v4.2ZM9.3,95.9h-1.1v-4.2h1.1v4.2ZM9.3,86.4h-1.1v-4.2h1.1v4.2ZM9.3,77h-1.1v-4.2h1.1v4.2ZM9.3,67.6h-1.1v-4.2h1.1v4.2ZM9.3,58.2h-1.1v-4.2h1.1v4.2ZM9.3,48.7h-1.1v-4.2h1.1v4.2ZM9.3,39.3h-1.1v-4.2h1.1v4.2ZM9.3,29.9h-1.1v-4.2h1.1v4.2ZM9.3,20.5h-1.1v-4.2h1.1v4.2Z" style="fill: #e4f3ef;"/>
    <polygon points="9.3 11 8.2 11 8.2 8.3 11 8.3 11 9.4 9.3 9.4 9.3 11" style="fill: #e4f3ef;"/>
    <path d="M119,9.4h-4.4v-1.1h4.4v1.1ZM109.2,9.4h-4.4v-1.1h4.4v1.1ZM99.4,9.4h-4.4v-1.1h4.4v1.1ZM89.6,9.4h-4.4v-1.1h4.4v1.1ZM79.7,9.4h-4.4v-1.1h4.4v1.1ZM69.9,9.4h-4.4v-1.1h4.4v1.1ZM60.1,9.4h-4.4v-1.1h4.4v1.1ZM50.3,9.4h-4.4v-1.1h4.4v1.1ZM40.5,9.4h-4.4v-1.1h4.4v1.1ZM30.6,9.4h-4.4v-1.1h4.4v1.1ZM20.8,9.4h-4.4v-1.1h4.4v1.1Z" style="fill: #e4f3ef;"/>
    <rect x="124.5" y="8.3" width="2.2" height="1.1" style="fill: #e4f3ef;"/>
  </g>
</svg>