<?xml version="1.0" encoding="UTF-8"?>
<svg width="1200pt" height="1200pt" version="1.1" viewBox="0 0 1200 1200" xmlns="http://www.w3.org/2000/svg">
 <path d="m182.86 1033.4c16.734 16.875 38.812 25.5 60.375 25.5 19.172 0 37.969-6.75 52.312-20.438l131.86-126.37 51.75-49.594 0.046874 0.1875 39.562-38.25 3.6562-4.0312v-0.46875l194.95-218.02c6.6562-7.4531 8.5312-17.578 5.9531-26.906l29.203-29.203 14.953 14.953c2.3438 2.3438 5.4375 3.5156 8.4844 3.5156 3.0938 0 6.1406-1.1719 8.4844-3.5156 4.6875-4.6875 4.6875-12.281 0-16.969l-14.953-14.953 36.703-36.656 14.953 14.953c2.3438 2.3438 5.4375 3.5156 8.4844 3.5156 3.0938 0 6.1406-1.1719 8.4844-3.5156 4.6875-4.6875 4.6875-12.281 0-16.969l-14.906-14.953 36.328-36.281 14.906 14.906c2.3438 2.3438 5.4375 3.5156 8.4844 3.5156 3.0938 0 6.1406-1.1719 8.4844-3.5156 4.6875-4.6875 4.6875-12.281 0-16.969l-14.906-14.906 36.703-36.656 14.906 14.906c2.3438 2.3438 5.4375 3.5156 8.4844 3.5156 3.0938 0 6.1406-1.1719 8.4844-3.5156 4.6875-4.6875 4.6875-12.281 0-16.969l-14.906-14.906 30.094-30.047 14.859 14.906c2.3438 2.3438 5.4375 3.5156 8.4844 3.5156 3.0938 0 6.1406-1.1719 8.4844-3.5156 4.6875-4.6875 4.6875-12.281 0-16.969l-14.859-14.859 36.797-36.75 14.719 14.812c2.3438 2.3438 5.4375 3.5625 8.5312 3.5625 3.0469 0 6.0938-1.1719 8.4375-3.4688 4.6875-4.6875 4.7344-12.281 0.046876-16.969l-14.766-14.859 2.0625-2.0625c24.047-24.188 24.047-63.469 0-87.516l-18.844-18.844c-24.188-24.047-63.469-24.047-87.516 0.046875l-2.0156 2.0156-15-14.906c-4.6875-4.6875-12.281-4.6406-16.969 0.046875s-4.6406 12.281 0.046876 16.969l14.953 14.859-36.75 36.75-14.953-14.953c-4.6875-4.6875-12.281-4.6875-16.969 0s-4.6875 12.281 0 16.969l14.953 14.953-30.094 30.094-14.953-14.953c-4.6875-4.6875-12.281-4.6875-16.969 0s-4.6875 12.281 0 16.969l14.953 14.953-36.656 36.656-15-14.953c-4.6875-4.6875-12.281-4.6875-16.969 0s-4.6875 12.281 0 16.969l15 14.953-36.328 36.328-14.953-14.953c-4.6875-4.6875-12.281-4.6875-16.969 0s-4.6875 12.281 0 16.969l14.953 14.953-36.656 36.656-14.953-15c-4.6875-4.6875-12.281-4.6875-16.969 0s-4.6875 12.281 0 16.969l14.953 15-26.297 26.297-30.375-30.375c-4.7344-4.7344-10.641-7.6875-16.547-8.6719l-108.52-45.422c-19.172-8.0156-40.781-5.25-56.203 7.2656l-32.531 26.438-22.641-79.031c-1.9219-6.6094-5.5312-12.656-10.5-17.578-11.953-11.953-29.812-15.422-44.391-8.625-16.172 7.5469-24.234 25.266-19.594 43.219l30.891 115.92-131.72 106.64c-10.078 8.1562-11.953 22.734-4.4531 33.75l8.3906 12.516-13.594 9.6562c-13.219 9.4688-16.359 27.984-7.1719 42.188l18.469 28.688c6.3281 9.8438 17.062 15.375 27.797 15.375 4.9688 0 9.9375-1.1719 14.531-3.6562l11.344-6.1875-80.062 231.19c-10.031 29.062-1.7812 62.578 20.859 85.219zm111.84-246c3.4688 2.625 7.4531 4.5469 11.766 5.2969 1.4531 0.23438 2.9062 0.375 4.3594 0.375 5.2969 0 10.406-1.6875 14.719-4.875l57.375-43.266 19.359 72.844-141.05 141.94-0.46875 0.51562c-3.375 3.7969-7.7812 4.3125-10.125 4.1719-5.0156-0.14062-9.8438-2.7188-13.172-7.0312-3.5156-4.4531-4.5469-10.219-2.7188-15zm52.406-143.39c-5.5781-0.70312-11.109-3.3281-15.656-7.8281-9.7031-9.7031-10.547-24.75-1.875-33.469 0.14062-0.14062 0.28125-0.23438 0.42188-0.32812 1.0312-0.98438 2.2031-1.875 3.4219-2.625 0.51562-0.32812 1.0312-0.5625 1.5469-0.79688 0.9375-0.46875 1.9219-0.84375 2.9531-1.1719 0.60938-0.1875 1.1719-0.375 1.8281-0.51562 0.98438-0.23438 2.0156-0.32812 3.0469-0.42188 0.5625-0.046875 1.1719-0.14062 1.7344-0.14062 1.7812 0 3.5625 0.1875 5.3906 0.60938 5.1094 1.4062 9.6562 3.9375 13.125 7.4062s5.8125 7.6406 6.9844 11.953l0.28125 0.84375c0.28125 1.0781 0.375 2.2031 0.51562 3.2812 0.046875 0.51562 0.14062 1.0312 0.14062 1.5469 0.046875 1.1719 0 2.2969-0.14062 3.4219-0.046875 0.32812-0.046875 0.65625-0.09375 0.98438-0.14062 1.0312-0.42188 2.0156-0.75 3-0.14062 0.46875-0.23438 0.9375-0.42188 1.3594-0.23438 0.70312-0.60938 1.3125-0.9375 1.9688-0.98438 1.875-2.1562 3.6562-3.6562 5.2031-0.60938 0.60938-1.2656 1.125-1.875 1.5938l-0.1875 0.14062c-3.1875 2.3438-6.8438 3.6562-10.641 4.0312-0.32812 0.046875-0.70312 0.14062-1.0312 0.14062-0.375 0-0.75-0.046875-1.125-0.046875-0.9375 0-1.9688 0-3-0.14062zm596.48-467.86c14.719-14.719 38.766-14.719 53.578 0l18.844 18.844c14.719 14.719 14.719 38.766 0 53.578l-306.74 306.52-13.031-13.031 293.26-293.48c5.9531-5.8125 9.2344-13.641 9.2812-21.938 0.046875-8.3438-3.2344-16.266-9.1875-22.219l-2.1094-2.1094c-5.8594-5.9062-13.641-9.2344-21.938-9.2344h-0.14062c-8.3438 0-16.125 3.2812-22.078 9.1875l-293.44 293.44-12.891-12.891zm-271.92 331.69 288.66-288.66c1.4062-1.4062 3.1875-2.1562 5.1094-2.1562 1.875 0 3.6094 0.75 4.9688 2.1562l2.1562 2.1562c1.4062 1.4062 2.1562 3.2344 2.1562 5.1562 0 1.875-0.75 3.6094-2.1562 5.0156l-288.52 288.74zm-42.281 1.3125-60.281 60.281c-5.7188 5.625-8.8594 13.078-8.9062 21.094-0.046875 8.0625 3.0938 15.656 8.8125 21.375l9.7969 9.7969c5.8594 5.7656 13.5 8.625 21.188 8.625s15.375-2.9062 21.141-8.7188l60.328-60.328 16.922 16.875c2.2969 2.2969 2.8125 5.8594 1.125 7.7812l-177.05 197.95v-0.23438l-20.859 23.531-0.14062 0.14063-1.7344 1.9688c-0.28125 0.32812-0.65625 0.32812-0.98438 0.51562-0.46875 0.28125-0.9375 0.65625-1.4531 0.70313-0.75 0.09375-1.5 0.046874-2.1562-0.09375-2.0156-0.46875-4.5-2.0625-5.3906-5.1094l-45.609-156-6.3281-21.75c-0.09375-0.28125-0.046875-0.51562-0.09375-0.79687-0.09375-0.46875-0.1875-0.9375-0.09375-1.4062 0.09375-0.70313 0.32812-1.3594 0.75-1.9219l125.9-171.32c0.79687-1.0312 1.8281-1.5938 3.8906-1.6875h0.32813c1.125 0 2.7188 0.51562 4.125 1.9688zm35.109 35.203-60.281 60.281c-2.3438 2.2969-6.1406 2.25-8.5312-0.046876l-9.6562-9.6562c-1.1719-1.1719-1.7812-2.7188-1.7812-4.3125 0-0.89062 0.23438-2.625 1.7812-4.1719l60.281-60.281zm-241.03-137.11c8.5781-6.9375 20.812-8.3906 31.875-3.75l87.844 36.75-115.17 156.66-45-156.84zm-121.6-60.281c-1.6875-6.5156 1.0312-12.844 6.5625-15.422 6.2812-2.9531 13.219-0.1875 17.25 3.8438 2.1094 2.1094 3.5625 4.5938 4.3594 7.2656l141.52 493.82-31.312 30-18.281-68.625-0.09375 0.09375-18.281-68.719 0.14062-0.09375-20.109-75.609c0.89062-0.98438 1.5469-2.1562 2.3438-3.1875 0.70312-0.9375 1.4531-1.8281 2.0625-2.8125 0.84375-1.3125 1.5-2.6719 2.1562-4.0781 0.65625-1.3594 1.3594-2.7188 1.875-4.125 0.42187-1.125 0.70312-2.2969 1.0312-3.4688 0.51562-1.7344 0.98437-3.4688 1.2656-5.2969 0.14063-0.98438 0.1875-1.9688 0.28125-3 0.14063-1.4531 0.42188-2.8125 0.42188-4.3125 0-0.5625-0.14063-1.0781-0.1875-1.6406-0.046876-1.2188-0.23438-2.3906-0.375-3.6094-0.1875-1.875-0.375-3.7969-0.79688-5.625-0.23437-1.125-0.70312-2.2031-1.0312-3.3281-0.5625-1.875-1.0781-3.7969-1.875-5.5781-0.32812-0.75-0.84375-1.4531-1.1719-2.2031-2.4844-4.9688-5.5781-9.6562-9.6094-13.688-2.3906-2.3906-5.0625-4.4062-7.875-6.2812-0.046874-0.046875-0.09375-0.09375-0.1875-0.09375-2.8125-1.875-5.7656-3.5156-8.9531-4.7812l-33.047-124.03-0.14062 0.09375zm-108.94 247.26 123.37-99.844 21 78.797c-1.4062 0.23438-2.7188 0.60938-4.0781 0.98438-0.375 0.09375-0.75 0.14062-1.125 0.28125-1.3594 0.375-2.625 0.84375-3.9375 1.3594-0.75 0.28125-1.4531 0.5625-2.2031 0.89062-1.0781 0.51562-2.1562 1.0312-3.2344 1.5938-0.9375 0.51562-1.8281 1.0781-2.7656 1.6875-0.84375 0.5625-1.6875 1.0312-2.4844 1.6406-1.4531 1.0781-2.8594 2.2969-4.1719 3.5625-0.1875 0.1875-0.42188 0.32812-0.60938 0.51562l-0.046875 0.046875s-0.046875 0-0.046875 0.046875c-8.4375 8.3906-13.125 19.734-13.172 31.969 0 13.078 5.4375 26.062 14.953 35.625 1.1719 1.125 2.4844 2.0156 3.7031 3 0.75 0.60938 1.4531 1.2656 2.25 1.8281 1.3594 0.98438 2.6719 1.9219 4.0781 2.7656 1.2656 0.75 2.5312 1.4062 3.8438 2.0625 1.6875 0.84375 3.3281 1.5469 5.0625 2.2031 1.7812 0.65625 3.5625 1.2188 5.3906 1.6406 0.98438 0.23438 1.9688 0.42188 3 0.60938 2.5781 0.46875 5.2031 0.75 7.8281 0.79688h0.32812c2.2969 0 4.5938-0.1875 6.8906-0.5625 0.42188-0.046875 0.79688-0.1875 1.1719-0.23438 1.3594-0.23438 2.7656-0.46875 4.0781-0.84375l14.156 53.203-65.766 49.172c-0.28125-0.046875-1.3125-0.28125-1.9688-1.2656l-115.27-171.84c-0.46875-0.84375-0.46875-1.5-0.23438-1.6875zm17.438 98.812c-3.3281 1.8281-8.2969 0.1875-10.734-3.6094l-18.516-28.688c-2.25-3.4688-1.8281-7.6406 0.98437-9.6094l11.156-7.9219 28.875 43.453zm-34.547 253.87 76.219-220.03 25.594 38.109-65.297 168.79c-4.875 12.656-2.4844 27.375 6.1875 38.438 7.7344 9.9375 19.172 15.844 31.359 16.219 11.344 0.42188 21.422-4.0312 28.594-12l130.97-131.86 10.922 41.016-141.42 135.47c-21.094 20.156-56.625 18.094-78.984-4.5l-8.9062-9.0938c-16.312-16.359-22.266-40.125-15.234-60.562zm252.74-466.69c-2.3438 2.3438-5.4375 3.5156-8.4844 3.5156-3.0938 0-6.1406-1.1719-8.4844-3.5156-4.6875-4.6875-4.6875-12.281 0-16.969l33.094-33.141c4.6875-4.6875 12.281-4.6875 16.969 0s4.6875 12.281 0 16.969zm13.125 13.172 33.141-33.234c4.6875-4.6875 12.281-4.6875 16.969-0.046874 4.6875 4.6875 4.6875 12.281 0 16.969l-33.141 33.234c-2.3438 2.3438-5.4375 3.5156-8.4844 3.5156-3.0938 0-6.1406-1.1719-8.4844-3.5156-4.6406-4.6406-4.6875-12.234 0-16.922z"/>
</svg>
