<?xml version="1.0" encoding="UTF-8"?>
<svg width="1200pt" height="1200pt" version="1.1" viewBox="0 0 1200 1200" xmlns="http://www.w3.org/2000/svg">
 <path d="m1089.2 460.91-103.18-30.941v-52.863l-124.41-62.199h-59.523v-18.395c0-30.422-24.758-55.18-55.18-55.18h-36.785c-30.422 0-55.18 24.758-55.18 55.18v34.621l-91.965 45.984v66.543l-395.45-0.003906c-45.629 0-82.77 37.141-82.77 82.77 0 45.629 37.141 82.77 82.77 82.77h14.223c-4.2695 5.9219-8.2617 12.047-11.957 18.395h-2.2656c-2.5547 0-5.0742-0.089844-7.5938-0.29688l-1.8242 23.121c-11.645 26.867-18.172 56.43-18.172 87.531 0 121.71 99.012 220.72 220.72 220.72s220.72-99.012 220.72-220.72c0-21.137-3.1602-41.492-8.7188-60.863 9.9531 14.508 26.621 24.074 45.508 24.074h338.69l18.395-18.395h81.391c62.488 0 113.32-50.836 113.32-113.3 0-50.418-32.445-94.051-80.75-108.56zm-379.09-182.79h36.785c10.133 0 18.395 8.2461 18.395 18.395v18.395l-73.574-0.003906v-18.395c0-10.148 8.2617-18.391 18.395-18.391zm-588.59 248.3c0-25.363 20.637-45.984 45.984-45.984h395.45v91.965h-56.812c-38.906-34.234-89.742-55.18-145.51-55.18-55.773 0-106.61 20.945-145.51 55.18h-47.617c-25.348 0-45.984-20.617-45.984-45.984zm239.11 395.45c-101.42 0-183.93-82.516-183.93-183.93 0-101.41 82.516-183.93 183.93-183.93 101.42 0 183.93 82.516 183.93 183.93 0 101.42-82.516 183.93-183.93 183.93zm178.91-312.68h23.418v36.785c0 1.75 0.35156 3.3828 0.51562 5.0742-6.4219-14.895-14.551-28.855-23.938-41.859zm517.07 36.785h-96.621l-18.395 18.395h-323.47c-10.133 0-18.395-8.2461-18.395-18.395v-246.13l55.18-27.59v53.012h36.785v-71.406l4.3438-2.168h156.86l96.301 48.152v57.496l129.39 38.809c32.629 9.8125 54.539 39.258 54.539 73.328 0 42.188-34.34 76.512-76.535 76.512z"/>
 <path d="m1069.2 531.71-67.594-22.551c-12.062-4.0312-25.473-2.0039-35.836 5.4609-10.328 7.4648-16.512 19.52-16.512 32.262v22.551c0 21.926 17.844 39.766 39.766 39.766h67.613c21.926 0 39.766-17.844 39.766-39.766 0-17.145-10.93-32.32-27.203-37.723zm-12.566 40.703h-67.613c-1.6328 0-2.9805-1.3203-2.9805-2.9805v-22.551c0-1.0117 0.42578-1.8398 1.2305-2.4297 0.53516-0.38672 1.1016-0.56641 1.707-0.56641 0.3125 0 0.64062 0.058594 0.97656 0.16406l67.594 22.551c1.25 0.40234 2.0625 1.543 2.0625 2.832 0 1.6602-1.3477 2.9805-2.9805 2.9805z"/>
 <path d="m807.5 438.27 23.789 23.777-19.977 19.977-19.977-19.977h-136.37v165.54h202.33v-99.578l-19.977-19.977 19.977-19.977 23.777 23.777 26.004-26.004-73.574-73.574zm13.008 152.53h-128.75v-91.965h84.355l44.398 44.398z"/>
 <path d="m114.34 440.35-19.402-31.25c-12.27 7.6133-23.246 17.07-32.59 28.066l28.035 23.82c6.8711-8.0977 14.945-15.027 23.961-20.637z"/>
 <path d="m167.56 425.26h8.6797v-36.785h-8.6797c-11.094 0-22.145 1.3203-32.871 3.9336l8.7188 35.734c7.8516-1.9062 15.98-2.8828 24.148-2.8828z"/>
 <path d="m69.16 550.12-35.762 8.5898c3.3672 14.051 8.918 27.426 16.496 39.801l31.359-19.223c-5.543-9.0586-9.6055-18.879-12.094-29.168z"/>
 <path d="m77.844 631.22c10.98 9.4336 23.32 17.016 36.656 22.59l14.164-33.953c-9.7891-4.082-18.82-9.6406-26.875-16.539z"/>
 <path d="m73.965 487.9-34.027-13.977c-5.5 13.352-8.8281 27.441-9.9375 41.879l36.68 2.793c0.80469-10.566 3.25-20.906 7.2852-30.695z"/>
 <path d="m231.93 425.26h18.066v-36.785h-36.457v36.785z"/>
 <path d="m287.11 388.47h36.457v36.785h-36.457z"/>
 <path d="m360.68 388.47h36.457v36.785h-36.457z"/>
 <path d="m434.25 388.47h36.457v36.785h-36.457z"/>
 <path d="m507.82 388.47h36.457v36.785h-36.457z"/>
</svg>
