<?xml version="1.0" encoding="UTF-8"?>
<svg width="1200pt" height="1200pt" version="1.1" viewBox="0 0 1200 1200" xmlns="http://www.w3.org/2000/svg">
 <path d="m684 216h-288c-38.191 0-74.816 15.172-101.82 42.176-27.004 27.008-42.176 63.633-42.176 101.82v480c0 38.191 15.172 74.816 42.176 101.82 27.008 27.004 63.633 42.176 101.82 42.176h156c17.148 0 32.996-9.1484 41.57-24 8.5742-14.852 8.5742-33.148 0-48-8.5742-14.852-24.422-24-41.57-24h-156c-12.73 0-24.938-5.0586-33.941-14.059-9-9.0039-14.059-21.211-14.059-33.941v-477.48c-0.23047-13.445 5.0039-26.41 14.504-35.934 9.4961-9.5195 22.449-14.781 35.895-14.586 12.312 0.61719 23.914 5.9453 32.402 14.879 8.4883 8.9375 13.215 20.797 13.199 33.121 0 12.73 5.0586 24.938 14.059 33.941 9.0039 9 21.211 14.059 33.941 14.059h96c12.73 0 24.938-5.0586 33.941-14.059 9-9.0039 14.059-21.211 14.059-33.941-0.015625-12.324 4.7109-24.184 13.199-33.121 8.4883-8.9336 20.09-14.262 32.402-14.879 13.445-0.19531 26.398 5.0664 35.895 14.586 9.5 9.5234 14.734 22.488 14.504 35.934v105.48c0 17.148 9.1484 32.996 24 41.57 14.852 8.5742 33.148 8.5742 48 0 14.852-8.5742 24-24.422 24-41.57v-108c0-38.191-15.172-74.816-42.176-101.82-27.008-27.004-63.633-42.176-101.82-42.176z"/>
 <path d="m933.96 802.08c9.0117-9 14.078-21.219 14.078-33.957 0-12.742-5.0664-24.957-14.078-33.961l-99.961-99.961c-14.316-14.332-33.742-22.387-54-22.387s-39.684 8.0547-54 22.387l-99.961 99.961c-12.133 12.133-16.871 29.816-12.43 46.391s17.387 29.52 33.961 33.961c16.574 4.4375 34.258-0.30078 46.391-12.434l38.039-38.039v170.04c-0.21094 12.203 4.0938 24.051 12.094 33.266 7.9961 9.2148 19.117 15.148 31.227 16.656 13.52 1.3242 26.969-3.1406 37.008-12.289 10.043-9.1523 15.738-22.125 15.672-35.711v-171.96l38.039 38.039c9.0039 9.0156 21.223 14.078 33.961 14.078s24.957-5.0625 33.961-14.078z"/>
</svg>
