<?xml version="1.0" encoding="UTF-8"?>
<svg id="Layer_1" xmlns="http://www.w3.org/2000/svg" version="1.1" viewBox="0 0 132 132">
  <!-- Generator: Adobe Illustrator 29.1.0, SVG Export Plug-In . SVG Version: 2.1.0 Build 142)  -->
  <defs>
    <style>
      .st0 {
        fill: none;
        stroke: #fff;
        stroke-dasharray: 5 5;
        stroke-linecap: round;
        stroke-linejoin: round;
        stroke-width: 1.6px;
      }

      .st1 {
        fill: #f1f1f2;
      }

      .st2 {
        fill: #74897c;
      }
    </style>
  </defs>
  <g>
    <rect class="st2" x="0" y="0" width="132" height="132" rx="66" ry="66"/>
    <rect class="st0" x="7.1" y="7.1" width="117.8" height="117.8" rx="58.9" ry="58.9"/>
  </g>
  <g>
    <path class="st1" d="M26.5,88.6h-8.5v-45.3h13.4c5.7,0,8.8,1,11,3.6,2.1,2.5,3,5.8,3,11.1s-1,9.2-3.5,11.7c-2.2,2.2-5.1,3.1-10.4,3.1h-5v15.8ZM31.5,65c4,0,5.4-1.9,5.4-7s-1.5-7-5.4-7h-5.2v14h5.2Z"/>
    <path class="st1" d="M59.1,88.6h-8.5v-45.3h14.9c5.3,0,8.1.9,10.2,3.3,2,2.3,2.9,5.3,2.9,10,0,7.8-2,11.5-7.1,13.2l8.5,18.8h-9.4l-7.4-18h-4.1v18ZM64.9,63.1c3.9,0,5.4-1.6,5.4-6s-1.5-6-5.5-6h-5.8v12.1h5.9Z"/>
    <path class="st1" d="M84.2,60.7c0-6.8.9-10.5,3.3-13.4,2.6-3.3,6-4.6,11.6-4.6s9.6,1.6,12.2,5.4c1.9,2.9,2.7,6.3,2.7,12.6v10.7c0,6.8-.9,10.5-3.3,13.4-2.6,3.3-6,4.6-11.6,4.6s-9.6-1.6-12.2-5.4c-1.9-2.8-2.7-6.4-2.7-12.6v-10.7ZM105.5,61.5c0-8.2-1.6-11-6.4-11s-6.4,2.7-6.4,11v9c0,8.2,1.6,11,6.4,11s6.4-2.7,6.4-11v-9Z"/>
  </g>
</svg>