<?xml version="1.0" encoding="UTF-8"?>
<svg width="1200pt" height="1200pt" version="1.1" viewBox="0 0 1200 1200" xmlns="http://www.w3.org/2000/svg">
 <path d="m1071.3 473.36-342.36-344.4h-0.003906c-6.2812-6.3203-15.047-9.5195-23.918-8.7344-8.875 0.78906-16.941 5.4766-22.016 12.801l-70.344 101.54-60 0.64844c-10.293 0.12109-19.809 5.5117-25.199 14.281l-93.109 151.3-92.844-102.47c-5.9336-6.6406-14.543-10.25-23.438-9.8281-8.8828 0.35547-17.148 4.6328-22.57 11.676l-169.23 219.71c-6.5391 8.4961-8.0508 19.832-3.9648 29.742 4.0859 9.9102 13.145 16.887 23.77 18.305 10.625 1.418 21.199-2.9414 27.742-11.434l147.32-191.32 95.594 105.48c0.30078 0.33594 0.66016 0.60156 0.98438 0.92578 0.32422 0.32422 0.99609 0.96094 1.5234 1.4297l-0.003907-0.003906c0.95703 0.83203 1.9688 1.6016 3.0234 2.3047 0.34766 0.23828 0.625 0.52734 0.98438 0.75781 0.14453 0.097656 0.3125 0.13281 0.46875 0.22656 1.5742 0.95312 3.2305 1.7578 4.957 2.3984 0.15625 0.070313 0.33594 0.085937 0.49219 0.14453 1.3555 0.5 2.75 0.89844 4.1641 1.1992l72.406 13.848 73.559 71.016h0.003906c7.7148 7.4453 18.816 10.203 29.121 7.2422 10.305-2.9609 18.246-11.195 20.832-21.598 2.5859-10.406-0.57422-21.398-8.2891-28.844l-79.98-77.207c-4.1953-4.0508-9.4805-6.793-15.207-7.8945l-38.543-7.3945 82.547-134.17 58.969-0.625v0.003906c9.7344-0.10547 18.809-4.9219 24.348-12.926l58.707-84.695 316.94 318.88c7.5586 7.6016 18.598 10.594 28.961 7.8477 10.363-2.7461 18.473-10.809 21.277-21.156 2.8008-10.348-0.125-21.402-7.6836-29.004z"/>
 <path d="m819.35 444.53c-33.586 0.039062-65.785 13.395-89.535 37.145-23.754 23.746-37.117 55.941-37.16 89.527 0 62.398 87.602 156.16 105.12 174.32 5.6523 5.8672 13.449 9.1797 21.598 9.1797 8.1484 0 15.945-3.3125 21.602-9.1797 17.555-18.168 105.12-111.96 105.12-174.32-0.046875-33.594-13.418-65.797-37.176-89.547-23.762-23.746-55.977-37.098-89.57-37.125zm0 235.66c-35.051-40.609-66.695-87.84-66.695-108.96 0-23.828 12.711-45.844 33.348-57.758 20.637-11.914 46.059-11.914 66.695 0 20.637 11.914 33.348 33.93 33.348 57.758 0 21.121-31.645 68.379-66.695 108.96z"/>
 <path d="m166 788.63c-5.7773 5.4688-9.1445 13.012-9.3633 20.965-0.21875 7.957 2.7344 15.672 8.207 21.449 5.4688 5.7773 13.012 9.1445 20.965 9.3633 7.9531 0.21484 15.668-2.7344 21.449-8.207l33.277-31.5v121.08l-0.003906 0.003906c0 10.715 5.7188 20.621 15 25.98s20.719 5.3594 30 0 15-15.266 15-25.98v-121.08l33.266 31.5c7.7812 7.3711 18.906 10.027 29.18 6.9727 10.273-3.0547 18.137-11.359 20.629-21.785 2.4922-10.426-0.76953-21.391-8.5547-28.758l-74.52-70.535v-56.113l33.266 31.5c7.7812 7.3711 18.906 10.027 29.18 6.9727 10.273-3.0586 18.137-11.363 20.629-21.789 2.4922-10.426-0.76953-21.387-8.5547-28.758l-83.902-79.414c-0.50391-0.48047-1.0938-0.81641-1.6328-1.1992l-0.23828-0.20312c-0.60156-0.48047-1.1992-1.043-1.7891-1.4766-0.22656-0.15625-0.46875-0.27734-0.69531-0.43359-0.76953-0.49219-1.5859-0.875-2.3984-1.2969-0.81641-0.42187-1.3203-0.79297-2.0156-1.0938-0.25391-0.10937-0.51562-0.17969-0.76953-0.27734-0.875-0.34766-1.7773-0.58984-2.6758-0.85156-0.70703-0.20312-1.3906-0.48047-2.1133-0.63672-0.26562-0.058594-0.53906-0.085938-0.80469-0.13281-0.91016-0.16797-1.8242-0.21484-2.7344-0.3125s-1.5703-0.19141-2.3984-0.20312h-0.39453-0.38281c-0.85156 0-1.6914 0.14453-2.543 0.22656-0.85156 0.085938-1.7031 0.12109-2.543 0.27734-0.27734 0-0.55078 0.085938-0.82812 0.14453-0.75781 0.15625-1.4883 0.45703-2.2305 0.67187-0.74219 0.21484-1.7148 0.48047-2.543 0.80469l-0.79297 0.28906c-0.70703 0.3125-1.3672 0.75781-2.0625 1.1172-0.69531 0.35938-1.5703 0.78125-2.3281 1.2734-0.23828 0.15625-0.48047 0.27734-0.70703 0.43359-0.625 0.43359-1.1992 0.98438-1.7656 1.4648l-0.28906 0.22656c-0.52734 0.43359-1.1055 0.76953-1.6094 1.1992l-83.902 79.414-0.007812 0.003906c-5.7773 5.4688-9.1484 13.012-9.3633 20.965-0.21875 7.9531 2.7344 15.668 8.2031 21.449 5.4727 5.7773 13.016 9.1445 20.969 9.3594 7.9531 0.21875 15.668-2.7344 21.445-8.2031l33.277-31.5v56.113z"/>
 <path d="m814.39 810.79-79.766 13.379-119.18-89.496h0.003906c-5.2305-3.9258-11.598-6.0352-18.133-6.0078-6.5391 0.023437-12.887 2.1836-18.086 6.1523l-106.02 80.953c-7.4258 5.6758-11.785 14.488-11.785 23.836s4.3594 18.164 11.785 23.84l68.785 52.598 12.984 44.398-115.73-1.1992-0.003906-0.003906c-9.4766 0.14062-18.391 4.5508-24.25 12l-36.66 48.602h-217.54c-10.719 0-20.621 5.7188-25.98 15-5.3594 9.2812-5.3594 20.719 0 30 5.3594 9.2812 15.262 15 25.98 15h232.44-0.003907c9.4336 0.015625 18.32-4.4023 24-11.93l36.539-48.457 141.02 1.4141 0.003907 0.003906c9.5117 0.15625 18.523-4.2656 24.215-11.891 5.7344-7.5703 7.5469-17.406 4.8828-26.52l-27.07-92.723v-0.003907c-1.7969-6.1289-5.5-11.531-10.57-15.418l-45.422-34.727 56.762-43.309 111.32 83.594v-0.003906c6.5586 4.9492 14.867 6.9766 22.965 5.6055l92.398-15.516h0.003907c10.504-1.8398 19.246-9.1211 22.953-19.121 3.707-10.004 1.8242-21.219-4.9414-29.465-6.7695-8.2422-17.406-12.273-27.938-10.586z"/>
</svg>
