<?xml version="1.0" encoding="UTF-8"?>
<svg id="Layer_1" xmlns="http://www.w3.org/2000/svg" version="1.1" viewBox="0 0 139.8 146.3">
  <!-- Generator: Adobe Illustrator 29.1.0, SVG Export Plug-In . SVG Version: 2.1.0 Build 142)  -->
  <path d="M138.7,13.1c0-6.6-5.4-12-12-12H1.8c-.4,0-.7.3-.7.7v113.4c0,.4.2.9.5,1.2l28.2,28.2c.3.3.8.5,1.2.5h106.9c.4,0,.7-.3.7-.7V13.2s0,0,0-.1Z" style="fill: #1d6131;"/>
  <g>
    <g style="opacity: .8;">
      <path d="M73.8,118.6h-8.7v-7.8h8.7v7.8ZM73.8,104.8h-8.7v-26.6h8.7v26.6Z" style="fill: #fff;"/>
      <path d="M92.3,85.2h-10.8v-7.1h30.2v7.1h-10.7v33.4h-8.7v-33.4Z" style="fill: #fff;"/>
    </g>
    <g style="opacity: .8;">
      <path d="M27.2,28.2h14.1c10.9-.2,15.9,4.9,15.6,15.8v8.8c.3,10.9-4.6,15.9-15.6,15.8h-14.1V28.2ZM39.7,61.7c6.6,0,8.4-1.9,8.5-9.6v-7.5c-.1-7.7-1.9-9.6-8.5-9.6h-3.8v26.6h3.8Z" style="fill: #fff;"/>
      <path d="M97.9,46h14.7v7c0,6-.7,8.8-2.8,11.5-2.7,3.3-6.5,4.8-12.6,4.8s-9.9-1.5-12.5-4.9c-2-2.6-2.7-5.7-2.7-11.5v-8.8c0-6.3.9-9.6,3.3-12.2,2.7-2.9,6.2-4.2,11.7-4.2,9.4,0,14,3.9,14.3,12l-8,.6c-.5-3.8-2.4-5.6-6.2-5.6s-6.5,2.4-6.5,10v7.5c0,7.7,1.5,10,6.6,10s6.6-2.2,6.6-7.4v-2.3h-6.1v-6.6Z" style="fill: #fff;"/>
      <path d="M65.1,28.2h8.7v40.5h-8.7V28.2Z" style="fill: #fff;"/>
    </g>
  </g>
  <g style="opacity: .8;">
    <path d="M128.5,9.9c-.6-.3-1.2-.5-1.8-.5v-1.1c.8,0,1.7.2,2.4.6l-.5,1Z" style="fill: #fff;"/>
    <path d="M131.5,129.7h-1.1v-4.5h1.1v4.5ZM131.5,119.6h-1.1v-4.5h1.1v4.5ZM131.5,109.5h-1.1v-4.5h1.1v4.5ZM131.5,99.4h-1.1v-4.5h1.1v4.5ZM131.5,89.3h-1.1v-4.5h1.1v4.5ZM131.5,79.2h-1.1v-4.5h1.1v4.5ZM131.5,69.1h-1.1v-4.5h1.1v4.5ZM131.5,59.1h-1.1v-4.5h1.1v4.5ZM131.5,49h-1.1v-4.5h1.1v4.5ZM131.5,38.9h-1.1v-4.5h1.1v4.5ZM131.5,28.8h-1.1v-4.5h1.1v4.5ZM131.5,18.7h-1.1v-4.5h1.1v4.5Z" style="fill: #fff;"/>
    <polygon points="131.5 138 128.8 138 128.8 136.9 130.4 136.9 130.4 135.3 131.5 135.3 131.5 138" style="fill: #fff;"/>
    <path d="M123.1,138h-4.5v-1.1h4.5v1.1ZM112.9,138h-4.5v-1.1h4.5v1.1ZM102.7,138h-4.5v-1.1h4.5v1.1ZM92.5,138h-4.5v-1.1h4.5v1.1ZM82.3,138h-4.5v-1.1h4.5v1.1ZM72.1,138h-4.5v-1.1h4.5v1.1ZM61.9,138h-4.5v-1.1h4.5v1.1ZM51.7,138h-4.5v-1.1h4.5v1.1ZM41.5,138h-4.5v-1.1h4.5v1.1ZM31.6,136.3l-3.2-3.2.8-.8,3.2,3.2-.8.8ZM24.4,129.1l-3.2-3.2.8-.8,3.2,3.2-.8.8ZM17.2,121.9l-3.2-3.2.8-.8,3.2,3.2-.8.8Z" style="fill: #fff;"/>
    <polygon points="10 114.7 8.2 113 8.2 110.5 9.3 110.5 9.3 112.5 10.7 113.9 10 114.7" style="fill: #fff;"/>
    <path d="M9.3,105.3h-1.1v-4.2h1.1v4.2ZM9.3,95.9h-1.1v-4.2h1.1v4.2ZM9.3,86.4h-1.1v-4.2h1.1v4.2ZM9.3,77h-1.1v-4.2h1.1v4.2ZM9.3,67.6h-1.1v-4.2h1.1v4.2ZM9.3,58.2h-1.1v-4.2h1.1v4.2ZM9.3,48.7h-1.1v-4.2h1.1v4.2ZM9.3,39.3h-1.1v-4.2h1.1v4.2ZM9.3,29.9h-1.1v-4.2h1.1v4.2ZM9.3,20.5h-1.1v-4.2h1.1v4.2Z" style="fill: #fff;"/>
    <polygon points="9.3 11 8.2 11 8.2 8.3 11 8.3 11 9.4 9.3 9.4 9.3 11" style="fill: #fff;"/>
    <path d="M119,9.4h-4.4v-1.1h4.4v1.1ZM109.2,9.4h-4.4v-1.1h4.4v1.1ZM99.4,9.4h-4.4v-1.1h4.4v1.1ZM89.6,9.4h-4.4v-1.1h4.4v1.1ZM79.7,9.4h-4.4v-1.1h4.4v1.1ZM69.9,9.4h-4.4v-1.1h4.4v1.1ZM60.1,9.4h-4.4v-1.1h4.4v1.1ZM50.3,9.4h-4.4v-1.1h4.4v1.1ZM40.5,9.4h-4.4v-1.1h4.4v1.1ZM30.6,9.4h-4.4v-1.1h4.4v1.1ZM20.8,9.4h-4.4v-1.1h4.4v1.1Z" style="fill: #fff;"/>
    <rect x="124.5" y="8.3" width="2.2" height="1.1" style="fill: #fff;"/>
  </g>
</svg>