<?xml version="1.0" encoding="UTF-8"?>
<svg id="Layer_1" xmlns="http://www.w3.org/2000/svg" version="1.1" viewBox="0 0 139.8 146.3">
  <!-- Generator: Adobe Illustrator 29.1.0, SVG Export Plug-In . SVG Version: 2.1.0 Build 142)  -->
  <path d="M138.7,13.1c0-6.6-5.4-12-12-12H1.8c-.4,0-.7.3-.7.7v113.4c0,.4.2.9.5,1.2l28.2,28.2c.3.3.8.5,1.2.5h106.9c.4,0,.7-.3.7-.7V13.2s0,0,0-.1Z" style="fill: #f26e36;"/>
  <g>
    <g style="opacity: .8;">
      <path d="M29.7,25.9h14.9v3.8h-10.4v12.1h8.7v3.8h-8.7v15.7h-4.5V25.9Z" style="fill: #fff;"/>
      <path d="M48.9,25.9h4.5v31.5h10.9v3.8h-15.4V25.9Z" style="fill: #fff;"/>
      <path d="M73.5,53.5l-1.6,7.6h-4.9l9.2-35.3h3.8l9.1,35.3h-4.9l-1.6-7.6h-9.1ZM78,32.2l-3.7,17.7h7.5l-3.8-17.7Z" style="fill: #fff;"/>
      <path d="M101.5,42.5h8.6v7c0,4.4-.5,6.8-1.7,8.7-1.6,2.4-4,3.5-7.4,3.5s-6-1.2-7.5-3.4c-1.1-1.7-1.6-4.1-1.6-7.9v-13.6c0-4.2.6-6.7,1.9-8.4,1.5-1.9,3.9-2.9,6.9-2.9s6.3,1.5,7.6,4.5c.6,1.4.8,2.9.9,5.5h-4.2c-.1-4.6-1.3-6.3-4.3-6.3s-4.4,2.1-4.4,7.8v13.1c0,5.7,1.2,7.9,4.5,7.9s4.6-2.3,4.6-7.5v-4.4h-4.1v-3.6Z" style="fill: #fff;"/>
    </g>
    <g style="opacity: .8;">
      <path d="M59.5,120.8h-10.6v-9.5h10.6v9.5ZM59.5,103.9h-10.6v-32.4h10.6v32.4Z" style="fill: #fff;"/>
      <path d="M82,80.2h-13.1v-8.6h36.8v8.6h-13v40.7h-10.6v-40.7Z" style="fill: #fff;"/>
    </g>
  </g>
  <g>
    <path d="M128.5,9.9c-.6-.3-1.2-.5-1.8-.5v-1.1c.8,0,1.7.2,2.4.6l-.5,1Z" style="fill: #fad3d4;"/>
    <path d="M131.5,129.7h-1.1v-4.5h1.1v4.5ZM131.5,119.6h-1.1v-4.5h1.1v4.5ZM131.5,109.5h-1.1v-4.5h1.1v4.5ZM131.5,99.4h-1.1v-4.5h1.1v4.5ZM131.5,89.3h-1.1v-4.5h1.1v4.5ZM131.5,79.2h-1.1v-4.5h1.1v4.5ZM131.5,69.1h-1.1v-4.5h1.1v4.5ZM131.5,59.1h-1.1v-4.5h1.1v4.5ZM131.5,49h-1.1v-4.5h1.1v4.5ZM131.5,38.9h-1.1v-4.5h1.1v4.5ZM131.5,28.8h-1.1v-4.5h1.1v4.5ZM131.5,18.7h-1.1v-4.5h1.1v4.5Z" style="fill: #fad3d4;"/>
    <polygon points="131.5 138 128.8 138 128.8 136.9 130.4 136.9 130.4 135.3 131.5 135.3 131.5 138" style="fill: #fad3d4;"/>
    <path d="M123.1,138h-4.5v-1.1h4.5v1.1ZM112.9,138h-4.5v-1.1h4.5v1.1ZM102.7,138h-4.5v-1.1h4.5v1.1ZM92.5,138h-4.5v-1.1h4.5v1.1ZM82.3,138h-4.5v-1.1h4.5v1.1ZM72.1,138h-4.5v-1.1h4.5v1.1ZM61.9,138h-4.5v-1.1h4.5v1.1ZM51.7,138h-4.5v-1.1h4.5v1.1ZM41.5,138h-4.5v-1.1h4.5v1.1ZM31.6,136.3l-3.2-3.2.8-.8,3.2,3.2-.8.8ZM24.4,129.1l-3.2-3.2.8-.8,3.2,3.2-.8.8ZM17.2,121.9l-3.2-3.2.8-.8,3.2,3.2-.8.8Z" style="fill: #fad3d4;"/>
    <polygon points="10 114.7 8.2 113 8.2 110.5 9.3 110.5 9.3 112.5 10.7 113.9 10 114.7" style="fill: #fad3d4;"/>
    <path d="M9.3,105.3h-1.1v-4.2h1.1v4.2ZM9.3,95.9h-1.1v-4.2h1.1v4.2ZM9.3,86.4h-1.1v-4.2h1.1v4.2ZM9.3,77h-1.1v-4.2h1.1v4.2ZM9.3,67.6h-1.1v-4.2h1.1v4.2ZM9.3,58.2h-1.1v-4.2h1.1v4.2ZM9.3,48.7h-1.1v-4.2h1.1v4.2ZM9.3,39.3h-1.1v-4.2h1.1v4.2ZM9.3,29.9h-1.1v-4.2h1.1v4.2ZM9.3,20.5h-1.1v-4.2h1.1v4.2Z" style="fill: #fad3d4;"/>
    <polygon points="9.3 11 8.2 11 8.2 8.3 11 8.3 11 9.4 9.3 9.4 9.3 11" style="fill: #fad3d4;"/>
    <path d="M119,9.4h-4.4v-1.1h4.4v1.1ZM109.2,9.4h-4.4v-1.1h4.4v1.1ZM99.4,9.4h-4.4v-1.1h4.4v1.1ZM89.6,9.4h-4.4v-1.1h4.4v1.1ZM79.7,9.4h-4.4v-1.1h4.4v1.1ZM69.9,9.4h-4.4v-1.1h4.4v1.1ZM60.1,9.4h-4.4v-1.1h4.4v1.1ZM50.3,9.4h-4.4v-1.1h4.4v1.1ZM40.5,9.4h-4.4v-1.1h4.4v1.1ZM30.6,9.4h-4.4v-1.1h4.4v1.1ZM20.8,9.4h-4.4v-1.1h4.4v1.1Z" style="fill: #fad3d4;"/>
    <rect x="124.5" y="8.3" width="2.2" height="1.1" style="fill: #fad3d4;"/>
  </g>
</svg>