<?xml version="1.0" encoding="UTF-8"?>
<svg id="Layer_1" xmlns="http://www.w3.org/2000/svg" version="1.1" viewBox="0 0 139.8 146.3">
  <!-- Generator: Adobe Illustrator 29.1.0, SVG Export Plug-In . SVG Version: 2.1.0 Build 142)  -->
  <path d="M139.8,12.2c0-6.7-5.4-12.2-12.2-12.2H.7c-.4,0-.7.3-.7.7v115.2c0,.4.2.9.5,1.2l28.7,28.7c.3.3.8.5,1.2.5h108.7c.4,0,.7-.3.7-.7V12.3s0,0,0-.1Z" style="fill: #98792c;"/>
  <g>
    <path d="M129.5,8.9c-.6-.3-1.2-.5-1.9-.5v-1.1c.8,0,1.7.2,2.4.6l-.5,1Z" style="fill: #ffeeab;"/>
    <path d="M132.5,130.6h-1.1v-4.6h1.1v4.6ZM132.5,120.3h-1.1v-4.6h1.1v4.6ZM132.5,110.1h-1.1v-4.6h1.1v4.6ZM132.5,99.8h-1.1v-4.6h1.1v4.6ZM132.5,89.6h-1.1v-4.6h1.1v4.6ZM132.5,79.3h-1.1v-4.6h1.1v4.6ZM132.5,69.1h-1.1v-4.6h1.1v4.6ZM132.5,58.8h-1.1v-4.6h1.1v4.6ZM132.5,48.6h-1.1v-4.6h1.1v4.6ZM132.5,38.3h-1.1v-4.6h1.1v4.6ZM132.5,28.1h-1.1v-4.6h1.1v4.6ZM132.5,17.8h-1.1v-4.6h1.1v4.6Z" style="fill: #ffeeab;"/>
    <polygon points="132.5 139 129.7 139 129.7 137.9 131.4 137.9 131.4 136.3 132.5 136.3 132.5 139" style="fill: #ffeeab;"/>
    <path d="M124,139h-4.6v-1.1h4.6v1.1ZM113.6,139h-4.6v-1.1h4.6v1.1ZM103.2,139h-4.6v-1.1h4.6v1.1ZM92.9,139h-4.6v-1.1h4.6v1.1ZM82.5,139h-4.6v-1.1h4.6v1.1ZM72.2,139h-4.6v-1.1h4.6v1.1ZM61.8,139h-4.6v-1.1h4.6v1.1ZM51.4,139h-4.6v-1.1h4.6v1.1ZM41.1,139h-4.6v-1.1h4.6v1.1ZM31,137.3l-3.3-3.3.8-.8,3.3,3.3-.8.8ZM23.7,130l-3.3-3.3.8-.8,3.3,3.3-.8.8ZM16.3,122.7l-3.3-3.3.8-.8,3.3,3.3-.8.8Z" style="fill: #ffeeab;"/>
    <polygon points="9 115.3 7.3 113.6 7.3 111.1 8.4 111.1 8.4 113.1 9.8 114.5 9 115.3" style="fill: #ffeeab;"/>
    <path d="M8.4,105.8h-1.1v-4.3h1.1v4.3ZM8.4,96.2h-1.1v-4.3h1.1v4.3ZM8.4,86.7h-1.1v-4.3h1.1v4.3ZM8.4,77.1h-1.1v-4.3h1.1v4.3ZM8.4,67.5h-1.1v-4.3h1.1v4.3ZM8.4,57.9h-1.1v-4.3h1.1v4.3ZM8.4,48.4h-1.1v-4.3h1.1v4.3ZM8.4,38.8h-1.1v-4.3h1.1v4.3ZM8.4,29.2h-1.1v-4.3h1.1v4.3ZM8.4,19.6h-1.1v-4.3h1.1v4.3Z" style="fill: #ffeeab;"/>
    <polygon points="8.4 10 7.3 10 7.3 7.3 10 7.3 10 8.4 8.4 8.4 8.4 10" style="fill: #ffeeab;"/>
    <path d="M119.8,8.4h-4.4v-1.1h4.4v1.1ZM109.8,8.4h-4.4v-1.1h4.4v1.1ZM99.9,8.4h-4.4v-1.1h4.4v1.1ZM89.9,8.4h-4.4v-1.1h4.4v1.1ZM79.9,8.4h-4.4v-1.1h4.4v1.1ZM69.9,8.4h-4.4v-1.1h4.4v1.1ZM59.9,8.4h-4.4v-1.1h4.4v1.1ZM50,8.4h-4.4v-1.1h4.4v1.1ZM40,8.4h-4.4v-1.1h4.4v1.1ZM30,8.4h-4.4v-1.1h4.4v1.1ZM20,8.4h-4.4v-1.1h4.4v1.1Z" style="fill: #ffeeab;"/>
    <rect x="125.4" y="7.3" width="2.2" height="1.1" style="fill: #ffeeab;"/>
  </g>
  <g>
    <g>
      <path d="M59.9,34.2h7.7v6.3c0,3.9-.4,6.1-1.5,7.8-1.4,2.1-3.5,3.1-6.6,3.1s-5.4-1.1-6.7-3.1c-1-1.5-1.4-3.7-1.4-7.1v-12.2c0-3.8.5-6,1.7-7.5,1.3-1.7,3.5-2.6,6.2-2.6s5.6,1.4,6.8,4c.5,1.2.8,2.6.8,4.9h-3.7c-.1-4.1-1.2-5.6-3.8-5.6s-3.9,1.9-3.9,7v11.7c0,5.1,1.1,7,4,7s4.1-2,4.1-6.7v-3.9h-3.7v-3.2Z" style="fill: #ffeeab;"/>
      <path d="M72.5,19.3h13.6v3.4h-9.5v10.6h8v3.4h-8v10.9h9.6v3.4h-13.7v-31.6Z" style="fill: #ffeeab;"/>
      <path d="M94.9,22.6h-5.5v-3.4h15.1v3.4h-5.5v28.3h-4.1v-28.3Z" style="fill: #ffeeab;"/>
    </g>
    <g style="opacity: .6;">
      <path d="M30.2,60.3h-5.5v-3.4h15.1v3.4h-5.5v28.3h-4.1v-28.3Z" style="fill: #ffeeab;"/>
      <path d="M48,88.6h-4.1v-31.6h6.7c3.4,0,5.3.6,6.7,2.3,1.3,1.5,1.9,3.6,1.9,6.6,0,5.1-1.2,7.4-4.3,8.7l5,14.1h-4.5l-4.4-13.7h-2.9v13.7ZM50.3,71.7c2,0,2.9-.4,3.7-1.4.7-.9,1.1-2.4,1.1-4.2s-.4-3.8-1.2-4.7c-.8-.9-1.6-1.2-3.4-1.2h-2.6v11.5h2.4Z" style="fill: #ffeeab;"/>
      <path d="M68.5,81.8l-1.5,6.8h-4.4l8.2-31.6h3.4l8.2,31.6h-4.4l-1.5-6.8h-8.2ZM72.6,62.6l-3.3,15.8h6.7l-3.4-15.8Z" style="fill: #ffeeab;"/>
      <path d="M85,56.9h4.1v31.6h-4.1v-31.6Z" style="fill: #ffeeab;"/>
      <path d="M94.9,56.9h4.1v28.3h9.8v3.4h-13.8v-31.6Z" style="fill: #ffeeab;"/>
    </g>
    <g>
      <path d="M49.4,126.9h-5.5v-5.8h5.5v5.8ZM49.4,116.2h-5.5v-21.6h5.5v21.6Z" style="fill: #ffeeab;"/>
      <path d="M54,94.8h5.8l7.7,20.4v-20.4h5.4v32.1h-5.4l-8-20.7v20.7h-5.4v-32.1Z" style="fill: #ffeeab;"/>
      <path d="M78.1,94.8h15.2v4.8h-9.4v9h7.8v4.8h-7.8v13.6h-5.8v-32.1Z" style="fill: #ffeeab;"/>
      <path d="M96.5,104.9c0-7.6,2.6-10.6,9.3-10.6s9.3,3,9.3,10.6v11.9c0,7.6-2.6,10.6-9.3,10.6s-9.3-3-9.3-10.6v-11.9ZM109.2,105.4c0-4.9-.8-6.4-3.5-6.4s-3.5,1.5-3.5,6.4v10.9c0,4.9.8,6.4,3.5,6.4s3.5-1.5,3.5-6.4v-10.9Z" style="fill: #ffeeab;"/>
    </g>
  </g>
</svg>