<?xml version="1.0" encoding="UTF-8"?>
<svg id="Layer_1" xmlns="http://www.w3.org/2000/svg" version="1.1" viewBox="0 0 139.8 146.3">
  <!-- Generator: Adobe Illustrator 29.1.0, SVG Export Plug-In . SVG Version: 2.1.0 Build 142)  -->
  <path d="M138.7,13.1c0-6.6-5.4-12-12-12H1.8c-.4,0-.7.3-.7.7v113.4c0,.4.2.9.5,1.2l28.2,28.2c.3.3.8.5,1.2.5h106.9c.4,0,.7-.3.7-.7V13.2s0,0,0-.1Z" style="fill: #c02826;"/>
  <g style="opacity: .8;">
    <path d="M128.5,9.9c-.6-.3-1.2-.5-1.8-.5v-1.1c.8,0,1.7.2,2.4.6l-.5,1Z" style="fill: #fff;"/>
    <path d="M131.5,129.7h-1.1v-4.5h1.1v4.5ZM131.5,119.6h-1.1v-4.5h1.1v4.5ZM131.5,109.5h-1.1v-4.5h1.1v4.5ZM131.5,99.4h-1.1v-4.5h1.1v4.5ZM131.5,89.3h-1.1v-4.5h1.1v4.5ZM131.5,79.2h-1.1v-4.5h1.1v4.5ZM131.5,69.1h-1.1v-4.5h1.1v4.5ZM131.5,59.1h-1.1v-4.5h1.1v4.5ZM131.5,49h-1.1v-4.5h1.1v4.5ZM131.5,38.9h-1.1v-4.5h1.1v4.5ZM131.5,28.8h-1.1v-4.5h1.1v4.5ZM131.5,18.7h-1.1v-4.5h1.1v4.5Z" style="fill: #fff;"/>
    <polygon points="131.5 138 128.8 138 128.8 136.9 130.4 136.9 130.4 135.3 131.5 135.3 131.5 138" style="fill: #fff;"/>
    <path d="M123.1,138h-4.5v-1.1h4.5v1.1ZM112.9,138h-4.5v-1.1h4.5v1.1ZM102.7,138h-4.5v-1.1h4.5v1.1ZM92.5,138h-4.5v-1.1h4.5v1.1ZM82.3,138h-4.5v-1.1h4.5v1.1ZM72.1,138h-4.5v-1.1h4.5v1.1ZM61.9,138h-4.5v-1.1h4.5v1.1ZM51.7,138h-4.5v-1.1h4.5v1.1ZM41.5,138h-4.5v-1.1h4.5v1.1ZM31.6,136.3l-3.2-3.2.8-.8,3.2,3.2-.8.8ZM24.4,129.1l-3.2-3.2.8-.8,3.2,3.2-.8.8ZM17.2,121.9l-3.2-3.2.8-.8,3.2,3.2-.8.8Z" style="fill: #fff;"/>
    <polygon points="10 114.7 8.2 113 8.2 110.5 9.3 110.5 9.3 112.5 10.7 113.9 10 114.7" style="fill: #fff;"/>
    <path d="M9.3,105.3h-1.1v-4.2h1.1v4.2ZM9.3,95.9h-1.1v-4.2h1.1v4.2ZM9.3,86.4h-1.1v-4.2h1.1v4.2ZM9.3,77h-1.1v-4.2h1.1v4.2ZM9.3,67.6h-1.1v-4.2h1.1v4.2ZM9.3,58.2h-1.1v-4.2h1.1v4.2ZM9.3,48.7h-1.1v-4.2h1.1v4.2ZM9.3,39.3h-1.1v-4.2h1.1v4.2ZM9.3,29.9h-1.1v-4.2h1.1v4.2ZM9.3,20.5h-1.1v-4.2h1.1v4.2Z" style="fill: #fff;"/>
    <polygon points="9.3 11 8.2 11 8.2 8.3 11 8.3 11 9.4 9.3 9.4 9.3 11" style="fill: #fff;"/>
    <path d="M119,9.4h-4.4v-1.1h4.4v1.1ZM109.2,9.4h-4.4v-1.1h4.4v1.1ZM99.4,9.4h-4.4v-1.1h4.4v1.1ZM89.6,9.4h-4.4v-1.1h4.4v1.1ZM79.7,9.4h-4.4v-1.1h4.4v1.1ZM69.9,9.4h-4.4v-1.1h4.4v1.1ZM60.1,9.4h-4.4v-1.1h4.4v1.1ZM50.3,9.4h-4.4v-1.1h4.4v1.1ZM40.5,9.4h-4.4v-1.1h4.4v1.1ZM30.6,9.4h-4.4v-1.1h4.4v1.1ZM20.8,9.4h-4.4v-1.1h4.4v1.1Z" style="fill: #fff;"/>
    <rect x="124.5" y="8.3" width="2.2" height="1.1" style="fill: #fff;"/>
  </g>
  <g>
    <g>
      <path d="M78,126.5h-6.9v-6.1h6.9v6.1ZM78,115.6h-6.9v-21h6.9v21Z" style="fill: #fff; opacity: .8;"/>
      <g>
        <path d="M62.4,51h-4v-30.8h6.5c3.3,0,5.1.6,6.5,2.2,1.3,1.4,1.8,3.5,1.8,6.5,0,5-1.2,7.2-4.2,8.5l4.8,13.7h-4.4l-4.3-13.3h-2.8v13.3ZM64.7,34.6c1.9,0,2.8-.3,3.6-1.4.7-.9,1-2.4,1-4.1s-.4-3.7-1.2-4.5c-.7-.9-1.6-1.2-3.3-1.2h-2.5v11.2h2.4Z" style="fill: #fff; opacity: .8;"/>
        <path d="M78.4,20.2h13.2v3.3h-9.2v10.3h7.8v3.3h-7.8v10.6h9.3v3.3h-13.3v-30.8Z" style="fill: #fff; opacity: .8;"/>
        <path d="M35.3,88.6h-4v-30.8h6.3c3.4,0,5.2.7,6.6,2.5,1.2,1.6,1.7,3.9,1.7,7s-.7,5.8-2,7.4c-1.3,1.5-3.1,2.1-6.3,2.1h-2.3v11.8ZM37.5,73.5c1.9,0,2.8-.4,3.4-1.6.6-.9.9-2.7.9-4.7s-.4-3.8-1.1-4.8c-.7-1-1.5-1.3-3.2-1.3h-2.4v12.5h2.3Z" style="fill: #fff; opacity: .5;"/>
        <path d="M50.1,57.8h4v30.8h-4v-30.8Z" style="fill: #fff; opacity: .5;"/>
        <path d="M58.4,57.8h4.3l4.4,11.1,3.7-11.1h4.1l-6,15.2,6.4,15.6h-4.3l-4.9-12.2-4.1,12.2h-4.1l6.4-16.3-5.9-14.5Z" style="fill: #fff; opacity: .5;"/>
        <path d="M78.4,57.8h13.2v3.3h-9.2v10.3h7.8v3.3h-7.8v10.6h9.3v3.3h-13.3v-30.8Z" style="fill: #fff; opacity: .5;"/>
        <path d="M96,57.8h4v27.5h9.5v3.3h-13.5v-30.8Z" style="fill: #fff; opacity: .5;"/>
      </g>
    </g>
    <path d="M82.6,104.7c0-7.5,2.6-10.4,9.1-10.4s9.2,2.9,9.2,10.4v11.7c0,7.5-2.6,10.4-9.2,10.4s-9.1-2.9-9.1-10.4v-11.7ZM95.2,105.2c0-4.9-.8-6.3-3.4-6.3s-3.4,1.5-3.4,6.3v10.7c0,4.9.8,6.3,3.4,6.3s3.4-1.5,3.4-6.3v-10.7Z" style="fill: #fff; opacity: .8;"/>
  </g>
</svg>