<?xml version="1.0" encoding="UTF-8"?>
<svg id="Layer_1" xmlns="http://www.w3.org/2000/svg" version="1.1" viewBox="0 0 139.8 146.3">
  <!-- Generator: Adobe Illustrator 29.1.0, SVG Export Plug-In . SVG Version: 2.1.0 Build 142)  -->
  <g>
    <path d="M138.7,13.1c0-6.6-5.4-12-12-12H1.8c-.4,0-.7.3-.7.7v113.4c0,.4.2.9.5,1.2l28.2,28.2c.3.3.8.5,1.2.5h106.9c.4,0,.7-.3.7-.7V13.2s0,0,0-.1Z" style="fill: #c02826;"/>
    <g style="opacity: .8;">
      <path d="M128.5,9.9c-.6-.3-1.2-.5-1.8-.5v-1.1c.8,0,1.7.2,2.4.6l-.5,1Z" style="fill: #fff;"/>
      <path d="M131.5,129.7h-1.1v-4.5h1.1v4.5ZM131.5,119.6h-1.1v-4.5h1.1v4.5ZM131.5,109.5h-1.1v-4.5h1.1v4.5ZM131.5,99.4h-1.1v-4.5h1.1v4.5ZM131.5,89.3h-1.1v-4.5h1.1v4.5ZM131.5,79.2h-1.1v-4.5h1.1v4.5ZM131.5,69.1h-1.1v-4.5h1.1v4.5ZM131.5,59.1h-1.1v-4.5h1.1v4.5ZM131.5,49h-1.1v-4.5h1.1v4.5ZM131.5,38.9h-1.1v-4.5h1.1v4.5ZM131.5,28.8h-1.1v-4.5h1.1v4.5ZM131.5,18.7h-1.1v-4.5h1.1v4.5Z" style="fill: #fff;"/>
      <polygon points="131.5 138 128.8 138 128.8 136.9 130.4 136.9 130.4 135.3 131.5 135.3 131.5 138" style="fill: #fff;"/>
      <path d="M123.1,138h-4.5v-1.1h4.5v1.1ZM112.9,138h-4.5v-1.1h4.5v1.1ZM102.7,138h-4.5v-1.1h4.5v1.1ZM92.5,138h-4.5v-1.1h4.5v1.1ZM82.3,138h-4.5v-1.1h4.5v1.1ZM72.1,138h-4.5v-1.1h4.5v1.1ZM61.9,138h-4.5v-1.1h4.5v1.1ZM51.7,138h-4.5v-1.1h4.5v1.1ZM41.5,138h-4.5v-1.1h4.5v1.1ZM31.6,136.3l-3.2-3.2.8-.8,3.2,3.2-.8.8ZM24.4,129.1l-3.2-3.2.8-.8,3.2,3.2-.8.8ZM17.2,121.9l-3.2-3.2.8-.8,3.2,3.2-.8.8Z" style="fill: #fff;"/>
      <polygon points="10 114.7 8.2 113 8.2 110.5 9.3 110.5 9.3 112.5 10.7 113.9 10 114.7" style="fill: #fff;"/>
      <path d="M9.3,105.3h-1.1v-4.2h1.1v4.2ZM9.3,95.9h-1.1v-4.2h1.1v4.2ZM9.3,86.4h-1.1v-4.2h1.1v4.2ZM9.3,77h-1.1v-4.2h1.1v4.2ZM9.3,67.6h-1.1v-4.2h1.1v4.2ZM9.3,58.2h-1.1v-4.2h1.1v4.2ZM9.3,48.7h-1.1v-4.2h1.1v4.2ZM9.3,39.3h-1.1v-4.2h1.1v4.2ZM9.3,29.9h-1.1v-4.2h1.1v4.2ZM9.3,20.5h-1.1v-4.2h1.1v4.2Z" style="fill: #fff;"/>
      <polygon points="9.3 11 8.2 11 8.2 8.3 11 8.3 11 9.4 9.3 9.4 9.3 11" style="fill: #fff;"/>
      <path d="M119,9.4h-4.4v-1.1h4.4v1.1ZM109.2,9.4h-4.4v-1.1h4.4v1.1ZM99.4,9.4h-4.4v-1.1h4.4v1.1ZM89.6,9.4h-4.4v-1.1h4.4v1.1ZM79.7,9.4h-4.4v-1.1h4.4v1.1ZM69.9,9.4h-4.4v-1.1h4.4v1.1ZM60.1,9.4h-4.4v-1.1h4.4v1.1ZM50.3,9.4h-4.4v-1.1h4.4v1.1ZM40.5,9.4h-4.4v-1.1h4.4v1.1ZM30.6,9.4h-4.4v-1.1h4.4v1.1ZM20.8,9.4h-4.4v-1.1h4.4v1.1Z" style="fill: #fff;"/>
      <rect x="124.5" y="8.3" width="2.2" height="1.1" style="fill: #fff;"/>
    </g>
    <g>
      <g>
        <path d="M78,126.5h-6.9v-6.1h6.9v6.1ZM78,115.6h-6.9v-21h6.9v21Z" style="fill: #fff; opacity: .8;"/>
        <g>
          <path d="M62.4,51h-4v-30.8h6.5c3.3,0,5.1.6,6.5,2.2,1.3,1.4,1.8,3.5,1.8,6.5,0,5-1.2,7.2-4.2,8.5l4.8,13.7h-4.4l-4.3-13.3h-2.8v13.3ZM64.7,34.6c1.9,0,2.8-.3,3.6-1.4.7-.9,1-2.4,1-4.1s-.4-3.7-1.2-4.5c-.7-.9-1.6-1.2-3.3-1.2h-2.5v11.2h2.4Z" style="fill: #fff; opacity: .8;"/>
          <path d="M78.4,20.2h13.2v3.3h-9.2v10.3h7.8v3.3h-7.8v10.6h9.3v3.3h-13.3v-30.8Z" style="fill: #fff; opacity: .8;"/>
          <path d="M35.3,88.6h-4v-30.8h6.3c3.4,0,5.2.7,6.6,2.5,1.2,1.6,1.7,3.9,1.7,7s-.7,5.8-2,7.4c-1.3,1.5-3.1,2.1-6.3,2.1h-2.3v11.8ZM37.5,73.5c1.9,0,2.8-.4,3.4-1.6.6-.9.9-2.7.9-4.7s-.4-3.8-1.1-4.8c-.7-1-1.5-1.3-3.2-1.3h-2.4v12.5h2.3Z" style="fill: #fff; opacity: .5;"/>
          <path d="M50.1,57.8h4v30.8h-4v-30.8Z" style="fill: #fff; opacity: .5;"/>
          <path d="M58.4,57.8h4.3l4.4,11.1,3.7-11.1h4.1l-6,15.2,6.4,15.6h-4.3l-4.9-12.2-4.1,12.2h-4.1l6.4-16.3-5.9-14.5Z" style="fill: #fff; opacity: .5;"/>
          <path d="M78.4,57.8h13.2v3.3h-9.2v10.3h7.8v3.3h-7.8v10.6h9.3v3.3h-13.3v-30.8Z" style="fill: #fff; opacity: .5;"/>
          <path d="M96,57.8h4v27.5h9.5v3.3h-13.5v-30.8Z" style="fill: #fff; opacity: .5;"/>
        </g>
      </g>
      <path d="M82.6,104.7c0-7.5,2.6-10.4,9.1-10.4s9.2,2.9,9.2,10.4v11.7c0,7.5-2.6,10.4-9.2,10.4s-9.1-2.9-9.1-10.4v-11.7ZM95.2,105.2c0-4.9-.8-6.3-3.4-6.3s-3.4,1.5-3.4,6.3v10.7c0,4.9.8,6.3,3.4,6.3s3.4-1.5,3.4-6.3v-10.7Z" style="fill: #fff; opacity: .8;"/>
    </g>
  </g>
  <g>
    <path d="M139.8,12.2C139.8,5.4,134.3,0,127.6,0H.7C.3,0,0,.3,0,.7v115.2C0,116.3.2,116.8.5,117.1l28.7,28.7c.3.3.8.5,1.2.5h108.7c.4,0,.7-.3.7-.7V12.3s0,0,0-.1Z" style="fill: #8d8b7b;"/>
    <g>
      <path d="M129.5,8.9c-.6-.3-1.2-.5-1.9-.5v-1.1c.8,0,1.7.2,2.4.6l-.6,1Z" style="fill: #f6f2cf;"/>
      <path d="M132.5,130.6h-1.1v-4.6h1.1v4.6ZM132.5,120.3h-1.1v-4.6h1.1v4.6ZM132.5,110.1h-1.1v-4.6h1.1v4.6ZM132.5,99.8h-1.1v-4.6h1.1v4.6ZM132.5,89.6h-1.1v-4.6h1.1v4.6ZM132.5,79.3h-1.1v-4.6h1.1v4.6ZM132.5,69.1h-1.1v-4.6h1.1v4.6ZM132.5,58.8h-1.1v-4.6h1.1v4.6ZM132.5,48.6h-1.1v-4.6h1.1v4.6ZM132.5,38.3h-1.1v-4.6h1.1v4.6ZM132.5,28.1h-1.1v-4.6h1.1v4.6ZM132.5,17.8h-1.1v-4.6h1.1v4.6Z" style="fill: #f6f2cf;"/>
      <polygon points="132.5 139 129.7 139 129.7 137.9 131.4 137.9 131.4 136.3 132.5 136.3 132.5 139" style="fill: #f6f2cf;"/>
      <path d="M124,139h-4.6v-1.1h4.6v1.1ZM113.6,139h-4.6v-1.1h4.6v1.1ZM103.2,139h-4.6v-1.1h4.6v1.1ZM92.9,139h-4.6v-1.1h4.6v1.1ZM82.5,139h-4.6v-1.1h4.6v1.1ZM72.2,139h-4.6v-1.1h4.6v1.1ZM61.8,139h-4.6v-1.1h4.6v1.1ZM51.4,139h-4.6v-1.1h4.6v1.1ZM41.1,139h-4.6v-1.1h4.6v1.1ZM31,137.3l-3.3-3.3.8-.8,3.3,3.3-.8.8ZM23.7,130l-3.3-3.3.8-.8,3.3,3.3-.8.8ZM16.3,122.7l-3.3-3.3.8-.8,3.3,3.3-.8.8Z" style="fill: #f6f2cf;"/>
      <polygon points="9 115.3 7.3 113.6 7.3 111.1 8.4 111.1 8.4 113.1 9.8 114.6 9 115.3" style="fill: #f6f2cf;"/>
      <path d="M8.4,105.8h-1.1v-4.3h1.1v4.3ZM8.4,96.2h-1.1v-4.3h1.1v4.3ZM8.4,86.7h-1.1v-4.3h1.1v4.3ZM8.4,77.1h-1.1v-4.3h1.1v4.3ZM8.4,67.5h-1.1v-4.3h1.1v4.3ZM8.4,57.9h-1.1v-4.3h1.1v4.3ZM8.4,48.4h-1.1v-4.3h1.1v4.3ZM8.4,38.8h-1.1v-4.3h1.1v4.3ZM8.4,29.2h-1.1v-4.3h1.1v4.3ZM8.4,19.6h-1.1v-4.3h1.1v4.3Z" style="fill: #f6f2cf;"/>
      <polygon points="8.4 10 7.3 10 7.3 7.3 10 7.3 10 8.4 8.4 8.4 8.4 10" style="fill: #f6f2cf;"/>
      <path d="M119.8,8.4h-4.4v-1.1h4.4v1.1ZM109.8,8.4h-4.4v-1.1h4.4v1.1ZM99.9,8.4h-4.4v-1.1h4.4v1.1ZM89.9,8.4h-4.4v-1.1h4.4v1.1ZM79.9,8.4h-4.4v-1.1h4.4v1.1ZM69.9,8.4h-4.4v-1.1h4.4v1.1ZM59.9,8.4h-4.4v-1.1h4.4v1.1ZM50,8.4h-4.4v-1.1h4.4v1.1ZM40,8.4h-4.4v-1.1h4.4v1.1ZM30,8.4h-4.4v-1.1h4.4v1.1ZM20,8.4h-4.4v-1.1h4.4v1.1Z" style="fill: #f6f2cf;"/>
      <rect x="125.4" y="7.3" width="2.2" height="1.1" style="fill: #f6f2cf;"/>
    </g>
    <g>
      <path d="M60.2,50.8h-4.1v-31.9h6.7c3.4,0,5.3.6,6.7,2.3,1.3,1.5,1.9,3.6,1.9,6.7,0,5.1-1.2,7.5-4.4,8.8l5,14.2h-4.5l-4.5-13.8h-2.9v13.8ZM62.6,33.8c2,0,2.9-.4,3.7-1.4.7-.9,1.1-2.5,1.1-4.2s-.4-3.8-1.2-4.7c-.8-.9-1.7-1.2-3.4-1.2h-2.6v11.6h2.5Z" style="fill: #f6f2cf;"/>
      <path d="M76.6,18.9h13.7v3.4h-9.6v10.7h8.1v3.4h-8.1v11h9.7v3.4h-13.8v-31.9Z" style="fill: #f6f2cf;"/>
    </g>
    <g>
      <path d="M26.7,56.9h4.1l3.1,24.1,4.8-24.1h3.1l4.9,24.1,3-24.1h4.1l-5,31.9h-3.6l-4.9-23.6-4.8,23.6h-3.7l-5-31.9Z" style="fill: #f6f2cf; opacity: .7;"/>
      <path d="M59.9,81.9l-1.5,6.9h-4.4l8.3-31.9h3.4l8.3,31.9h-4.4l-1.5-6.9h-8.2ZM64,62.6l-3.3,15.9h6.7l-3.4-15.9Z" style="fill: #f6f2cf; opacity: .7;"/>
      <path d="M80.7,88.8h-4.1v-31.9h6.7c3.4,0,5.3.6,6.7,2.3,1.3,1.5,1.9,3.6,1.9,6.7,0,5.1-1.2,7.5-4.4,8.8l5,14.2h-4.5l-4.5-13.8h-2.9v13.8ZM83.1,71.8c2,0,2.9-.4,3.7-1.4.7-.9,1.1-2.5,1.1-4.2s-.4-3.8-1.2-4.7c-.8-.9-1.7-1.2-3.4-1.2h-2.6v11.6h2.5Z" style="fill: #f6f2cf; opacity: .7;"/>
      <path d="M97.2,56.9h7.1c6.2-.1,8.9,2.7,8.8,9.2v13.4c0,6.5-2.6,9.4-8.8,9.2h-7.1v-31.9ZM104.4,85.4c3.4,0,4.6-1.6,4.6-6.6v-12.1c0-5-1.2-6.6-4.6-6.6h-3.1v25.2h3.1Z" style="fill: #f6f2cf; opacity: .7;"/>
    </g>
    <g>
      <path d="M50.2,127.4h-7v-6.2h7v6.2ZM50.2,116.2h-7v-21.4h7v21.4Z" style="fill: #f6f2cf;"/>
      <path d="M65.1,100.5h-8.7v-5.7h24.3v5.7h-8.6v26.9h-7v-26.9Z" style="fill: #f6f2cf;"/>
    </g>
  </g>
</svg>