<?xml version="1.0" encoding="UTF-8"?>
<svg id="Layer_1" xmlns="http://www.w3.org/2000/svg" version="1.1" viewBox="0 0 137.6 144">
  <!-- Generator: Adobe Illustrator 29.1.0, SVG Export Plug-In . SVG Version: 2.1.0 Build 142)  -->
  <path d="M137.6,12c0-6.6-5.4-12-12-12H.7c-.4,0-.7.3-.7.7v113.4c0,.4.2.9.5,1.2l28.2,28.2c.3.3.8.5,1.2.5h106.9c.4,0,.7-.3.7-.7V12.1s0,0,0-.1Z" style="fill: #84a9b1;"/>
  <g>
    <path d="M127.4,8.7c-.6-.3-1.2-.5-1.8-.5v-1.1c.8,0,1.7.2,2.4.6l-.5,1Z" style="fill: #f6f4f1;"/>
    <path d="M130.4,128.5h-1.1v-4.5h1.1v4.5ZM130.4,118.4h-1.1v-4.5h1.1v4.5ZM130.4,108.3h-1.1v-4.5h1.1v4.5ZM130.4,98.3h-1.1v-4.5h1.1v4.5ZM130.4,88.2h-1.1v-4.5h1.1v4.5ZM130.4,78.1h-1.1v-4.5h1.1v4.5ZM130.4,68h-1.1v-4.5h1.1v4.5ZM130.4,57.9h-1.1v-4.5h1.1v4.5ZM130.4,47.8h-1.1v-4.5h1.1v4.5ZM130.4,37.7h-1.1v-4.5h1.1v4.5ZM130.4,27.6h-1.1v-4.5h1.1v4.5ZM130.4,17.6h-1.1v-4.5h1.1v4.5Z" style="fill: #f6f4f1;"/>
    <polygon points="130.4 136.9 127.7 136.9 127.7 135.8 129.3 135.8 129.3 134.1 130.4 134.1 130.4 136.9" style="fill: #f6f4f1;"/>
    <path d="M122,136.9h-4.5v-1.1h4.5v1.1ZM111.8,136.9h-4.5v-1.1h4.5v1.1ZM101.6,136.9h-4.5v-1.1h4.5v1.1ZM91.4,136.9h-4.5v-1.1h4.5v1.1ZM81.2,136.9h-4.5v-1.1h4.5v1.1ZM71,136.9h-4.5v-1.1h4.5v1.1ZM60.8,136.9h-4.5v-1.1h4.5v1.1ZM50.6,136.9h-4.5v-1.1h4.5v1.1ZM40.4,136.9h-4.5v-1.1h4.5v1.1ZM30.5,135.2l-3.2-3.2.8-.8,3.2,3.2-.8.8ZM23.3,127.9l-3.2-3.2.8-.8,3.2,3.2-.8.8ZM16.1,120.7l-3.2-3.2.8-.8,3.2,3.2-.8.8Z" style="fill: #f6f4f1;"/>
    <polygon points="8.9 113.5 7.1 111.8 7.1 109.4 8.2 109.4 8.2 111.4 9.6 112.7 8.9 113.5" style="fill: #f6f4f1;"/>
    <path d="M8.2,104.1h-1.1v-4.2h1.1v4.2ZM8.2,94.7h-1.1v-4.2h1.1v4.2ZM8.2,85.3h-1.1v-4.2h1.1v4.2ZM8.2,75.9h-1.1v-4.2h1.1v4.2ZM8.2,66.4h-1.1v-4.2h1.1v4.2ZM8.2,57h-1.1v-4.2h1.1v4.2ZM8.2,47.6h-1.1v-4.2h1.1v4.2ZM8.2,38.2h-1.1v-4.2h1.1v4.2ZM8.2,28.7h-1.1v-4.2h1.1v4.2ZM8.2,19.3h-1.1v-4.2h1.1v4.2Z" style="fill: #f6f4f1;"/>
    <polygon points="8.2 9.9 7.1 9.9 7.1 7.1 9.9 7.1 9.9 8.2 8.2 8.2 8.2 9.9" style="fill: #f6f4f1;"/>
    <path d="M117.9,8.2h-4.4v-1.1h4.4v1.1ZM108.1,8.2h-4.4v-1.1h4.4v1.1ZM98.3,8.2h-4.4v-1.1h4.4v1.1ZM88.5,8.2h-4.4v-1.1h4.4v1.1ZM78.6,8.2h-4.4v-1.1h4.4v1.1ZM68.8,8.2h-4.4v-1.1h4.4v1.1ZM59,8.2h-4.4v-1.1h4.4v1.1ZM49.2,8.2h-4.4v-1.1h4.4v1.1ZM39.4,8.2h-4.4v-1.1h4.4v1.1ZM29.5,8.2h-4.4v-1.1h4.4v1.1ZM19.7,8.2h-4.4v-1.1h4.4v1.1Z" style="fill: #f6f4f1;"/>
    <rect x="123.4" y="7.1" width="2.2" height="1.1" style="fill: #f6f4f1;"/>
  </g>
  <g>
    <g style="opacity: .6;">
      <path d="M27.3,38.3h-5.8v-3.6h16v3.6h-5.8v30h-4.3v-30Z" style="fill: #f6f4f1;"/>
      <path d="M46.1,68.3h-4.3v-33.6h7.1c3.6,0,5.6.7,7.1,2.4,1.4,1.6,2,3.8,2,7.1,0,5.4-1.3,7.9-4.6,9.2l5.3,14.9h-4.8l-4.7-14.5h-3.1v14.5ZM48.6,50.4c2.1,0,3.1-.4,3.9-1.5.8-1,1.1-2.6,1.1-4.5s-.5-4-1.3-4.9c-.8-.9-1.7-1.3-3.6-1.3h-2.7v12.2h2.6Z" style="fill: #f6f4f1;"/>
      <path d="M67.9,61.1l-1.6,7.2h-4.7l8.8-33.6h3.6l8.7,33.6h-4.7l-1.6-7.2h-8.7ZM72.3,40.8l-3.5,16.8h7.1l-3.6-16.8Z" style="fill: #f6f4f1;"/>
      <path d="M85.5,34.7h4.3v33.6h-4.3v-33.6Z" style="fill: #f6f4f1;"/>
      <path d="M96,34.7h4.3v30h10.4v3.6h-14.7v-33.6Z" style="fill: #f6f4f1;"/>
    </g>
    <g>
      <path d="M47.6,109h-5.8v-6.2h5.8v6.2ZM47.6,97.7h-5.8v-23h5.8v23Z" style="fill: #f6f4f1;"/>
      <path d="M52.6,75h6.1l8.2,21.7v-21.7h5.7v34.1h-5.8l-8.5-22v22h-5.7v-34.1Z" style="fill: #f6f4f1;"/>
      <path d="M78.2,75h16.1v5.1h-10v9.5h8.3v5.1h-8.3v14.4h-6.2v-34.1Z" style="fill: #f6f4f1;"/>
      <path d="M97.7,85.7c0-8.1,2.8-11.3,9.8-11.3s9.9,3.1,9.9,11.3v12.6c0,8.1-2.8,11.3-9.9,11.3s-9.8-3.1-9.8-11.3v-12.6ZM111.2,86.2c0-5.2-.9-6.8-3.7-6.8s-3.7,1.6-3.7,6.8v11.5c0,5.2.9,6.8,3.7,6.8s3.7-1.6,3.7-6.8v-11.5Z" style="fill: #f6f4f1;"/>
    </g>
  </g>
</svg>